<?xml version="1.0" encoding="UTF-8"?>
<svg width="50px" height="48px" viewBox="0 0 50 48" version="1.1" xmlns="http://www.w3.org/2000/svg" xmlns:xlink="http://www.w3.org/1999/xlink">
    <!-- Generator: Sketch 58 (84663) - https://sketch.com -->
    <title>Group 2</title>
    <desc>Created with Sketch.</desc>
    <defs>
        <linearGradient x1="3.26775183%" y1="17.7049287%" x2="96.2921141%" y2="88.9605401%" id="linearGradient-1">
            <stop stop-color="#7676FF" offset="0%"></stop>
            <stop stop-color="#76B1FF" offset="100%"></stop>
        </linearGradient>
    </defs>
    <g id="Symbols" stroke="none" stroke-width="1" fill="none" fill-rule="evenodd">
        <g id="Header" transform="translate(-325.000000, -26.000000)">
            <g id="Topheader">
                <g id="Group-9">
                    <g id="calenso_logo_new" transform="translate(325.000000, 26.000000)">
                        <g id="Group-2">
                            <polygon id="Rectangle" fill="#FFFFFF" points="5 9 46 9 41.1509418 35.555 5 41"></polygon>
                            <path d="M44.815,3.695 L44.355,3.695 L44.355,2.545 C44.355,1.195 43.26,0.105 41.915,0.105 C40.57,0.105 39.475,1.2 39.475,2.545 L39.475,3.695 L34.9,3.695 L34.9,2.545 C34.9,1.195 33.805,0.105 32.46,0.105 C31.11,0.105 30.02,1.2 30.02,2.545 L30.02,3.695 L20.25,3.695 L20.25,2.545 C20.25,1.195 19.155,0.105 17.81,0.105 C16.465,0.105 15.37,1.2 15.37,2.545 L15.37,3.695 L10.795,3.695 L10.795,2.545 C10.795,1.195 9.7,0.105 8.355,0.105 C7.005,0.105 5.915,1.2 5.915,2.545 L5.915,3.695 L5.45,3.695 C2.67,3.695 0.415,5.95 0.415,8.73 L0.415,43.705 C0.415,45.875 2.175,47.635 4.345,47.635 L34.375,47.635 C36.04,47.635 37.64,46.975 38.815,45.795 L48,36.625 C49.18,35.445 49.8450083,33.845 49.8450083,32.175 L49.8450083,8.73 C49.85,5.95 47.595,3.695 44.815,3.695 Z M41.335,20.44 L24.555,37.22 C23.66,38.115 22.49,38.56 21.32,38.56 C20.15,38.56 18.975,38.115 18.085,37.22 L8.93,28.065 C7.14,26.275 7.14,23.38 8.93,21.595 C10.715,19.805 13.615,19.805 15.4,21.595 L21.32,27.515 L34.865,13.97 C36.65,12.18 39.55,12.18 41.335,13.97 C43.125,15.755 43.125,18.65 41.335,20.44 Z" id="Shape" fill="url(#linearGradient-1)" fill-rule="nonzero"></path>
                        </g>
                    </g>
                </g>
            </g>
        </g>
    </g>
</svg>