<?xml version="1.0" encoding="UTF-8"?>
<svg width="1444px" height="1034px" viewBox="0 0 1444 1034" version="1.1" xmlns="http://www.w3.org/2000/svg" xmlns:xlink="http://www.w3.org/1999/xlink">
    <!-- Generator: Sketch 55.2 (78181) - https://sketchapp.com -->
    <title>Group 10</title>
    <desc>Created with Sketch.</desc>
    <defs>
        <rect id="path-1" x="-5.40012479e-13" y="2.84217094e-14" width="145.965741" height="145.995768" rx="5.06880005"></rect>
        <filter x="-43.8%" y="-42.5%" width="187.7%" height="187.7%" filterUnits="objectBoundingBox" id="filter-2">
            <feOffset dx="0" dy="2" in="SourceAlpha" result="shadowOffsetOuter1"></feOffset>
            <feGaussianBlur stdDeviation="21" in="shadowOffsetOuter1" result="shadowBlurOuter1"></feGaussianBlur>
            <feColorMatrix values="0 0 0 0 0   0 0 0 0 0   0 0 0 0 0  0 0 0 0.0860194493 0" type="matrix" in="shadowBlurOuter1"></feColorMatrix>
        </filter>
        <rect id="path-3" x="-5.40012479e-13" y="2.84217094e-14" width="116.772593" height="116.796614" rx="4.05504004"></rect>
        <filter x="-44.5%" y="-42.8%" width="189.1%" height="189.0%" filterUnits="objectBoundingBox" id="filter-4">
            <feOffset dx="0" dy="2" in="SourceAlpha" result="shadowOffsetOuter1"></feOffset>
            <feGaussianBlur stdDeviation="17" in="shadowOffsetOuter1" result="shadowBlurOuter1"></feGaussianBlur>
            <feColorMatrix values="0 0 0 0 0   0 0 0 0 0   0 0 0 0 0  0 0 0 0.0860194493 0" type="matrix" in="shadowBlurOuter1"></feColorMatrix>
        </filter>
        <rect id="path-5" x="-5.40012479e-13" y="2.84217094e-14" width="145.965741" height="145.995768" rx="5.06880005"></rect>
        <filter x="-43.8%" y="-42.5%" width="187.7%" height="187.7%" filterUnits="objectBoundingBox" id="filter-6">
            <feOffset dx="0" dy="2" in="SourceAlpha" result="shadowOffsetOuter1"></feOffset>
            <feGaussianBlur stdDeviation="21" in="shadowOffsetOuter1" result="shadowBlurOuter1"></feGaussianBlur>
            <feColorMatrix values="0 0 0 0 0   0 0 0 0 0   0 0 0 0 0  0 0 0 0.0860194493 0" type="matrix" in="shadowBlurOuter1"></feColorMatrix>
        </filter>
        <linearGradient x1="95.0351688%" y1="50%" x2="0%" y2="50%" id="linearGradient-7">
            <stop stop-color="#B2ABFF" stop-opacity="0" offset="0%"></stop>
            <stop stop-color="#7A73FD" offset="100%"></stop>
        </linearGradient>
        <linearGradient x1="95.0351688%" y1="50%" x2="0%" y2="50%" id="linearGradient-8">
            <stop stop-color="#B2ABFF" stop-opacity="0" offset="0%"></stop>
            <stop stop-color="#7A73FD" offset="100%"></stop>
        </linearGradient>
    </defs>
    <g id="Visual---Login-Screen" stroke="none" stroke-width="1" fill="none" fill-rule="evenodd">
        <g id="Calenso-login" transform="translate(-889.000000, -146.000000)">
            <g id="Group-10" transform="translate(890.000000, 164.000000)">
                <g id="Group-8">
                    <g id="404_1">
                        <path d="M190.247351,740.440292 C239.946235,702.741208 250.457144,601.636773 204.00959,544.288052 C142.750426,468.58017 82.0417523,287.913634 231.138402,255.720578 C380.235052,223.527521 456.323028,264.323746 562.980375,127.894701 C669.637722,-8.53434305 918.734237,-69.685664 1015.98165,119.584041 C1113.22907,308.853746 1138.84404,301.420608 1253.38027,353.865523 C1367.91649,406.310437 1380.2681,509.44522 1315.31034,587.871703 C1238.94789,680.08244 1277.13963,750.415548 1294.59498,806.173164 C1309.71096,854.458131 1291.56875,862.229035 1285.63659,868.280294 C1256.95998,897.532611 1160.11341,859.825018 1092.5341,868.280294 C841.876365,899.641678 439.463528,870.285217 335.361636,877.33539 C282.781625,880.896307 222.700953,917.688594 178.807491,891.425415 C134.914029,865.162236 121.43616,792.627111 190.247351,740.440292 Z" id="Path" fill="#E8EFF7" fill-rule="nonzero"></path>
                        <ellipse id="Oval" fill="#7A73FD" fill-rule="nonzero" cx="178.807491" cy="345.262354" rx="2.58041969" ry="2.58095052"></ellipse>
                        <ellipse id="Oval" fill="#7A73FD" fill-rule="nonzero" cx="833.201925" cy="76.2412784" rx="5.16083939" ry="5.16190104"></ellipse>
                        <circle id="Oval" fill="#7A73FD" fill-rule="nonzero" cx="906" cy="87" r="2"></circle>
                        <ellipse id="Oval" fill="#7A73FD" fill-rule="nonzero" cx="1402.49412" cy="418.871063" rx="2.58041969" ry="2.58095052"></ellipse>
                        <ellipse id="Oval" fill="#7FB0FE" fill-rule="nonzero" cx="1338.79216" cy="656.611019" rx="5.16083939" ry="5.16190104"></ellipse>
                        <ellipse id="Oval" fill="#7A73FD" fill-rule="nonzero" cx="419.50904" cy="109.449508" rx="3.52657358" ry="3.52729904"></ellipse>
                        <circle id="Oval" fill="#7A73FD" fill-rule="nonzero" cx="296" cy="151" r="5"></circle>
                        <circle id="Oval" fill="#7A73FD" fill-rule="nonzero" cx="168" cy="584" r="5"></circle>
                        <circle id="Oval" fill="#7A73FD" fill-rule="nonzero" cx="140.5" cy="207.5" r="2.5"></circle>
                        <circle id="Oval" fill="#7A73FD" fill-rule="nonzero" cx="191.5" cy="638.5" r="2.5"></circle>
                        <rect id="Rectangle" fill="#7A73FD" fill-rule="nonzero" x="250.457144" y="199.008491" width="946.153888" height="650.399531" rx="17.6056322"></rect>
                        <rect id="Rectangle" fill="#FFFFFF" fill-rule="nonzero" x="262.069033" y="210.485118" width="922.069971" height="627.463484" rx="11.8947841"></rect>
                        <g id="Group" opacity="0.5" transform="translate(340.047342, 222.822062)" fill="#7A73FD" fill-rule="nonzero">
                            <ellipse id="Oval" cx="10.1860305" cy="9.92805633" rx="9.53035007" ry="9.53231059"></ellipse>
                            <ellipse id="Oval" cx="93.1379223" cy="9.92805633" rx="9.53035007" ry="9.53231059"></ellipse>
                            <ellipse id="Oval" cx="176.107017" cy="9.92805633" rx="9.53035007" ry="9.53231059"></ellipse>
                            <ellipse id="Oval" cx="259.058909" cy="9.92805633" rx="9.53035007" ry="9.53231059"></ellipse>
                            <ellipse id="Oval" cx="342.0108" cy="9.92805633" rx="9.53035007" ry="9.53231059"></ellipse>
                            <ellipse id="Oval" cx="424.962692" cy="9.92805633" rx="9.53035007" ry="9.53231059"></ellipse>
                            <ellipse id="Oval" cx="507.931787" cy="9.92805633" rx="9.53035007" ry="9.53231059"></ellipse>
                            <ellipse id="Oval" cx="590.883679" cy="9.92805633" rx="9.53035007" ry="9.53231059"></ellipse>
                            <ellipse id="Oval" cx="673.83557" cy="9.92805633" rx="9.53035007" ry="9.53231059"></ellipse>
                            <ellipse id="Oval" cx="756.787462" cy="9.92805633" rx="9.53035007" ry="9.53231059"></ellipse>
                        </g>
                        <rect id="Rectangle" fill="#42478E" fill-rule="nonzero" x="345.932673" y="161.15455" width="8.60139898" height="75.7078819" rx="4.22400004"></rect>
                        <rect id="Rectangle" fill="#42478E" fill-rule="nonzero" x="428.884565" y="161.15455" width="8.60139898" height="75.7078819" rx="4.22400004"></rect>
                        <rect id="Rectangle" fill="#42478E" fill-rule="nonzero" x="511.853659" y="161.15455" width="8.60139898" height="75.7078819" rx="4.22400004"></rect>
                        <rect id="Rectangle" fill="#42478E" fill-rule="nonzero" x="594.805551" y="161.15455" width="8.60139898" height="75.7078819" rx="4.22400004"></rect>
                        <rect id="Rectangle" fill="#42478E" fill-rule="nonzero" x="677.757443" y="161.15455" width="8.60139898" height="75.7078819" rx="4.22400004"></rect>
                        <rect id="Rectangle" fill="#42478E" fill-rule="nonzero" x="760.709335" y="161.15455" width="8.60139898" height="75.7078819" rx="4.22400004"></rect>
                        <rect id="Rectangle" fill="#42478E" fill-rule="nonzero" x="843.678429" y="161.15455" width="8.60139898" height="75.7078819" rx="4.22400004"></rect>
                        <rect id="Rectangle" fill="#42478E" fill-rule="nonzero" x="926.630321" y="161.15455" width="8.60139898" height="75.7078819" rx="4.22400004"></rect>
                        <rect id="Rectangle" fill="#42478E" fill-rule="nonzero" x="1009.58221" y="161.15455" width="8.60139898" height="75.7078819" rx="4.22400004"></rect>
                        <rect id="Rectangle" fill="#42478E" fill-rule="nonzero" x="1092.5341" y="161.15455" width="8.60139898" height="75.7078819" rx="4.22400004"></rect>
                        <rect id="Rectangle" stroke="#E8EFF7" stroke-width="1.68960002" x="314.107497" y="285.040175" width="810.251784" height="468.012361" rx="12.1144321"></rect>
                        <path d="M314.107497,402.043266 L1124.35928,402.043266" id="Path" stroke="#E8EFF7" stroke-width="1.68960002"></path>
                        <path d="M314.107497,636.049446 L1124.35928,636.049446" id="Path" stroke="#E8EFF7" stroke-width="1.68960002"></path>
                        <path d="M314.107497,519.046356 L1124.35928,519.046356" id="Path" stroke="#E8EFF7" stroke-width="1.68960002"></path>
                        <path d="M429.865124,285.040175 L429.865124,753.052536" id="Path" stroke="#E8EFF7" stroke-width="1.68960002"></path>
                        <path d="M545.605549,285.040175 L545.605549,753.052536" id="Path" stroke="#E8EFF7" stroke-width="1.68960002"></path>
                        <path d="M661.363177,285.040175 L661.363177,753.052536" id="Path" stroke="#E8EFF7" stroke-width="1.68960002"></path>
                        <path d="M777.120804,285.040175 L777.120804,753.052536" id="Path" stroke="#E8EFF7" stroke-width="1.68960002"></path>
                        <path d="M892.861229,285.040175 L892.861229,753.052536" id="Path" stroke="#E8EFF7" stroke-width="1.68960002"></path>
                        <path d="M1008.61886,285.040175 L1008.61886,753.052536" id="Path" stroke="#E8EFF7" stroke-width="1.68960002"></path>
                        <polyline id="Path" stroke="#FFFFFF" stroke-width="1.68960002" points="0.156433985 826.850515 19.0795117 847.050754 27.1132184 836.950635"></polyline>
                        <path d="M789.569604,529.043238 L878.950191,529.043238 C881.749612,529.043238 884.018991,531.312617 884.018991,534.112038 L884.018991,623.513096 C884.018991,626.312517 881.749612,628.581896 878.950191,628.581896 L789.569604,628.581896 C786.770183,628.581896 784.500804,626.312517 784.500804,623.513096 L784.500804,534.112038 C784.500804,531.312617 786.770183,529.043238 789.569604,529.043238 Z" id="Rectangle" stroke="#E8EFF7" stroke-width="1.68960002" stroke-dasharray="10.05311965942383"></path>
                        <path d="M1021.03325,410.560402 L1110.41384,410.560402 C1113.21326,410.560402 1115.48264,412.829781 1115.48264,415.629202 L1115.48264,505.030261 C1115.48264,507.829682 1113.21326,510.099061 1110.41384,510.099061 L1021.03325,510.099061 C1018.23383,510.099061 1015.96445,507.829682 1015.96445,505.030261 L1015.96445,415.629202 C1015.96445,412.829781 1018.23383,410.560402 1021.03325,410.560402 Z" id="Rectangle" stroke="#7A73FD" stroke-width="1.68960002" stroke-dasharray="10.05311965942383"></path>
                        <g id="Group-3" transform="translate(732.944019, 507.586936)">
                            <path d="M201.588044,186.731237 C201.588044,186.731237 132.716441,199.128219 142.776338,150.315104 C152.836235,101.501989 127.965074,105.623986 107.953617,96.07831 C91.7030141,88.3301965 82.757444,54.2384974 131.168764,37.1926479 C161.240118,26.6397174 156.597089,-0.246236275 190.645971,5.68434189e-14 C276.557492,0.652544884 230.220058,87.5553852 288.257926,91.4294419 C346.295794,95.3034986 471.286146,110.815222 455.809381,203.792583 C440.332616,296.769944 311.086154,340.159379 276.27891,270.426359 C241.471666,200.693338 245.696823,166.586142 201.588044,186.731237 Z" id="Path" fill="#41468E" fill-rule="nonzero"></path>
                            <path d="M425.474922,263.406568 C425.072526,230.446093 360.348696,226.448067 309.848013,233.049459 C248.219536,241.122994 252.289925,179.277552 261.870042,134.338494 C271.45016,89.3994362 204.311954,83.2009454 150.638534,84.9055304 C113.060949,86.0987399 107.226209,63.5052411 107.102395,49.8530652 C86.9826008,67.3638016 95.2626699,89.523406 107.953617,95.5669345 C127.965074,105.11261 152.836235,100.990614 142.776338,149.803729 C132.716441,198.616843 201.588044,186.219862 201.588044,186.219862 C245.696823,166.074767 241.440713,200.166466 276.263433,269.899487 C302.264398,321.982305 380.839933,310.979984 425.474922,263.406568 Z" id="Path" fill="#2D2968" fill-rule="nonzero"></path>
                            <path d="M220.934,65.0858562 C220.934,65.0858562 187.658955,59.6621768 176.82522,37.1926479 C176.82522,37.1926479 170.526177,58.1435466 148.967044,65.0858562 C148.967044,65.0858562 147.125309,107.592007 171.005957,115.681037 L170.216641,146.10013 L184.919568,189.830483 L199.622494,141.792179 L197.30098,114.673782 L197.130735,114.673782 C220.98043,104.585739 220.934,65.0858562 220.934,65.0858562 Z" id="Path" fill="#E8EFF7" fill-rule="nonzero"></path>
                            <path d="M126.448351,177.092584 L104.78088,253.024096 L42.1154599,181.540001 L9.35114895,181.540001 C7.81008424,181.548526 6.56530778,182.801792 6.5653313,184.344818 L6.5653313,184.344818 C6.57124493,185.82079 7.72452711,187.036656 9.19638131,187.118643 L28.5268604,188.466815 L33.4484716,200.569368 L15.6192387,207.728625 L5.66767895,195.688056 C4.52317722,194.692474 2.79199481,194.802967 1.783011,195.935996 L0.715114238,197.113709 C-0.183023828,198.112927 -0.241586435,199.611409 0.575823356,200.677841 L13.9013178,218.080104 L46.9596872,213.632687 L94.2257267,282.590897 C97.680432,287.632678 103.528012,290.484696 109.622548,290.100331 C115.717085,289.715965 121.16103,286.151822 123.956592,280.715853 L139.433356,244.17575 L126.448351,177.092584 Z" id="Path" fill="#E8EFF7" fill-rule="nonzero"></path>
                            <path d="M243.60746,170.460199 L266.358304,249.645918 L332.01074,175.124563 L366.307251,175.124563 C367.922743,175.124563 369.232359,176.435826 369.232359,178.05335 L369.232359,178.05335 C369.226325,179.606252 368.01081,180.884488 366.462018,180.966641 L346.21841,182.376797 L341.049171,195.052711 L359.745102,202.552885 L370.160965,189.938956 C371.367532,188.898691 373.183481,189.015774 374.246831,190.202392 L375.361158,191.426594 C376.30398,192.473723 376.362643,194.046563 375.500449,195.161185 L361.4785,213.431236 L326.841501,208.782368 L277.315853,280.948297 C273.698876,286.236972 267.569154,289.22959 261.180107,288.825999 C254.79106,288.422408 249.08558,284.682168 246.161126,278.980276 L231.148664,242.951548 L243.60746,170.460199 Z" id="Path" fill="#E8EFF7" fill-rule="nonzero"></path>
                            <polygon id="Path" fill="#BDC6DA" fill-rule="nonzero" points="197.331933 114.673782 189.392353 118.640816 198.306969 126.094501"></polygon>
                            <path d="M229.570034,248.700648 L244.149147,173.900361 C244.887474,169.984213 243.051032,166.032456 239.583501,164.075753 L199.622494,141.792179 L184.919568,176.441743 L170.216641,146.10013 L131.013996,164.292701 C127.161931,166.072062 125.026075,170.259506 125.844757,174.427233 L139.526217,244.671629 C145.593109,275.772557 129.079401,307.648295 120.954099,338.377313 L116.31107,355.950035 L251.577994,355.950035 L248.018338,342.406332 C240.01685,311.677314 223.503142,279.801576 229.570034,248.700648 Z" id="Path" fill="#7A73FD" fill-rule="nonzero"></path>
                            <path d="M131.52473,385.082941 L144.67998,416.850206 C144.67998,416.850206 374.246831,353.734074 358.259333,323.872845 C337.566898,285.395714 187.241083,353.315676 131.52473,385.082941 Z" id="Path" fill="#41468E" fill-rule="nonzero"></path>
                            <path d="M74.9571546,440.094547 C74.9571546,440.094547 78.7953923,410.806678 134.527222,392.52113 L141.336999,408.978123 C141.336999,408.978123 70.3141252,471.087 74.9571546,440.094547 Z" id="Path" fill="#2D2968" fill-rule="nonzero"></path>
                            <path d="M238.469174,381.208884 L225.313924,412.97615 C225.313924,412.97615 -8.38522342,358.739355 11.7345707,319.998788 C31.8543649,281.258221 182.752821,349.441619 238.469174,381.208884 Z" id="Path" fill="#41468E" fill-rule="nonzero"></path>
                            <path d="M294.959365,436.22049 C294.959365,436.22049 291.121128,406.932621 235.389298,388.647073 L228.579521,405.104066 C228.579521,405.104066 299.602395,467.212944 294.959365,436.22049 Z" id="Path" fill="#2D2968" fill-rule="nonzero"></path>
                            <polygon id="Path" fill="#2D2968" fill-rule="nonzero" points="192.224601 404.716661 235.389298 388.647073 225.313924 412.97615"></polygon>
                            <path d="M184.950522,176.441743 C184.950522,176.441743 172.336958,191.519571 165.620042,182.500767 C158.903126,173.481963 170.263072,146.10013 170.263072,146.10013 L184.950522,176.441743 Z" id="Path" fill="#FFFFFF" fill-rule="nonzero"></path>
                            <path d="M184.950522,176.441743 C184.950522,176.441743 195.087802,189.22613 204.698873,185.367569 C214.309944,181.509009 199.622494,141.792179 199.622494,141.792179 L184.950522,176.441743 Z" id="Path" fill="#FFFFFF" fill-rule="nonzero"></path>
                            <ellipse id="Oval" fill="#41468E" fill-rule="nonzero" cx="186.219616" cy="202.521892" rx="1.26909471" ry="1.2706906"></ellipse>
                            <ellipse id="Oval" fill="#41468E" fill-rule="nonzero" cx="186.219616" cy="212.361996" rx="1.26909471" ry="1.2706906"></ellipse>
                            <ellipse id="Oval" fill="#E8EFF7" fill-rule="nonzero" cx="184.348923" cy="495.911956" rx="124.13913" ry="10.1190361"></ellipse>
                            <path d="M124.482802,328.707668 C124.482802,328.707668 189.392353,308.407611 245.201567,332.364777 L193.834184,364.627922 L124.482802,328.707668 Z" id="Path" fill="#41468E" fill-rule="nonzero"></path>
                            <path d="M131.447346,385.082941 L245.217043,332.364777" id="Path" stroke="#FFFFFF" stroke-width="1.52064001" opacity="0.3"></path>
                            <path d="M207.979947,202.521892 L225.592506,202.521892" id="Path" stroke="#FFFFFF" stroke-width="1.52064001"></path>
                            <path d="M128.181749,186.095892 C128.181749,186.095892 142.729907,236.474125 159.46029,233.576331 C176.190673,230.678537 220.934,233.576331 220.934,233.576331 C220.934,233.576331 178.140745,241.866812 163.499726,254.434252 C149.802789,266.195889 132.437859,302.162631 132.437859,302.162631 C132.437859,302.162631 145.066899,276.888285 136.771353,229.655786 C134.697466,217.878653 131.354485,202.521892 128.181749,186.095892 Z" id="Path" fill="#2D2968" fill-rule="nonzero" opacity="0.2"></path>
                            <path d="M245.217043,332.364777 C188.262549,310.003722 125.132826,328.521713 124.498279,328.707668 L125.674513,321.130013 C128.382946,320.324209 184.486219,300.984918 243.421739,324.136281 L245.217043,332.364777 Z" id="Path" fill="#2D2968" fill-rule="nonzero"></path>
                            <path d="M135.703456,318.898556 L135.703456,327.282015" id="Path" stroke="#41468E" stroke-width="3.04128003"></path>
                            <path d="M157.107822,314.77656 L157.107822,323.175515" id="Path" stroke="#41468E" stroke-width="3.04128003"></path>
                            <path d="M205.612002,315.427401 L205.612002,323.826356" id="Path" stroke="#41468E" stroke-width="3.04128003"></path>
                            <path d="M231.210571,318.976037 L231.210571,327.374992" id="Path" stroke="#41468E" stroke-width="3.04128003"></path>
                            <rect id="Rectangle" fill="#FFFFFF" fill-rule="nonzero" opacity="0.3" x="173.203657" y="314.77656" width="16.31251" height="4.85031901"></rect>
                            <path d="M124.482802,328.707668 L186.219616,354.586367" id="Path" stroke="#FFFFFF" stroke-width="1.52064001" opacity="0.3"></path>
                        </g>
                        <g id="Group-2" transform="translate(290.832111, 443.063173)">
                            <path d="M270.682806,33.5790747 C270.682806,33.5790747 214.923133,49.4514111 201.669561,21.9873445 C201.669561,21.9873445 200.022331,30.5106755 182.584416,33.5790747 C182.584416,33.5790747 180.331309,104.834122 209.527036,114.721186 L208.618219,151.90185 L226.605211,205.352605 L244.592202,146.636325 L241.752151,113.490038 L241.524947,113.490038 C270.739607,101.159619 270.682806,33.5790747 270.682806,33.5790747 Z" id="Path" fill="#E8EFF7" fill-rule="nonzero"></path>
                            <path d="M155.09272,189.783321 L128.585575,282.592925 L51.9420591,195.238253 L11.8405355,195.238253 C10.9351159,195.233178 10.0653117,195.590745 9.42507335,196.231222 C8.78483496,196.871699 8.42740148,197.741828 8.43247398,198.647585 L8.43247398,198.647585 C8.43970848,200.451637 9.85058926,201.937765 11.6511987,202.037977 L35.2804251,203.685821 L41.3202674,218.478535 L19.4897402,227.229155 L7.33432083,212.512203 C5.9244468,211.303491 3.80877331,211.43787 2.56303474,212.815255 L1.27554484,214.254751 C0.176797493,215.476076 0.105154266,217.307641 1.10514177,218.61112 L17.4827706,239.900507 L57.9251003,234.483457 L115.653875,318.731848 C119.884969,324.89341 127.04098,328.378025 134.498745,327.908344 C141.95651,327.438664 148.619166,323.083767 152.044399,316.440019 L170.978074,271.777765 L155.09272,189.783321 Z" id="Path" fill="#E8EFF7" fill-rule="nonzero"></path>
                            <path d="M298.42064,181.676686 L326.253142,278.463845 L406.569791,187.377847 L448.526815,187.377847 C449.474151,187.377834 450.382413,187.755594 451.050501,188.427486 C451.71859,189.099379 452.091385,190.009971 452.086346,190.957646 L452.086346,190.957646 C452.089027,192.852599 450.607719,194.417711 448.716152,194.518505 L423.950905,196.242112 L417.627057,211.735633 L440.498937,220.902949 L453.2413,205.485191 C454.717367,204.213695 456.93893,204.356803 458.23979,205.807183 L459.584081,207.303501 C460.738664,208.587923 460.818134,210.511824 459.773418,211.887159 L442.600575,234.199346 L400.245944,228.517125 L339.658184,316.72413 C335.228562,323.187452 327.727394,326.843906 319.909345,326.350727 C312.091296,325.857548 305.108691,321.287427 301.525762,314.318657 L283.160098,270.281447 L298.42064,181.676686 Z" id="Path" fill="#E8EFF7" fill-rule="nonzero"></path>
                            <polygon id="Path" fill="#BDC6DA" fill-rule="nonzero" points="241.808952 113.490038 232.095976 118.338866 243.001773 127.44936"></polygon>
                            <path d="M281.190996,277.30846 L299.026517,185.881529 C299.972948,181.089586 297.715005,176.235112 293.441083,173.873103 L244.649003,146.636325 L242.755635,151.049517 C239.872394,157.795779 233.320879,162.240095 225.98892,162.423462 C218.656962,162.606829 211.891637,158.495559 208.67502,151.90185 L208.67502,151.90185 L160.716022,174.138273 C156.011179,176.325434 153.385264,181.423324 154.335373,186.525514 L171.091676,272.383868 C178.513676,310.397925 158.292511,349.359018 148.371266,386.918496 L142.691163,408.39729 L308.190416,408.39729 L303.911406,391.862028 C294.028027,354.283609 273.806862,315.322516 281.190996,277.30846 Z" id="Path" fill="#7FB0FF" fill-rule="nonzero"></path>
                            <path d="M161.189364,444.005873 L177.282987,482.834381 C177.282987,482.834381 458.145122,405.688765 438.567702,369.189968 C413.366981,322.160121 229.350594,405.177365 161.189364,444.005873 Z" id="Path" fill="#41468E" fill-rule="nonzero"></path>
                            <path d="M92.08145,511.245484 C92.08145,511.245484 96.7770014,475.447494 164.957165,453.097426 L173.269048,473.231428 C173.269048,473.231428 86.4013475,549.126956 92.08145,511.245484 Z" id="Path" fill="#2D2968" fill-rule="nonzero"></path>
                            <path d="M292.13466,439.270689 L276.041036,478.099197 C276.041036,478.099197 -9.85745604,411.806623 14.7563214,364.454784 C39.3700989,317.102945 223.97343,400.442182 292.13466,439.270689 Z" id="Path" fill="#41468E" fill-rule="nonzero"></path>
                            <path d="M361.242573,506.510301 C361.242573,506.510301 356.547022,470.71231 288.366858,448.362242 L280.017108,468.496244 C280.017108,468.496244 366.922676,544.391772 361.242573,506.510301 Z" id="Path" fill="#2D2968" fill-rule="nonzero"></path>
                            <polyline id="Path" fill="#2D2968" fill-rule="nonzero" opacity="0.3" points="276.041036 478.099197 235.560839 468.003785 288.366858 448.362242"></polyline>
                            <ellipse id="Oval" fill="#E8EFF7" fill-rule="nonzero" cx="222.577778" cy="560.390127" rx="151.867007" ry="12.3683003"></ellipse>
                            <path d="M152.688144,375.099477 C152.688144,375.099477 232.095976,350.306055 300.370808,379.569491 L237.643543,419.004102 L152.688144,375.099477 Z" id="Path" fill="#41468E" fill-rule="nonzero"></path>
                            <path d="M161.189364,444.005873 L300.370808,379.569491" id="Path" stroke="#FFFFFF" stroke-width="1.85856002" opacity="0.3"></path>
                            <path d="M250.40484,210.826478 L271.970296,210.826478" id="Path" stroke="#FFFFFF" stroke-width="1.85856002"></path>
                            <path d="M300.370808,379.569491 C230.713818,352.23801 153.483358,374.872189 152.688144,375.099477 L154.127103,365.837458 C157.440496,364.852539 226.075068,341.214501 298.155568,369.51196 L300.370808,379.569491 Z" id="Path" fill="#2D2968" fill-rule="nonzero"></path>
                            <path d="M166.415058,363.109992 L166.415058,373.35693" id="Path" stroke="#7A73FD" stroke-width="3.71712004"></path>
                            <path d="M192.60033,358.071756 L192.60033,368.337635" id="Path" stroke="#7A73FD" stroke-width="3.71712004"></path>
                            <path d="M251.919534,358.867267 L251.919534,369.133146" id="Path" stroke="#7A73FD" stroke-width="3.71712004"></path>
                            <path d="M283.235832,363.204695 L283.235832,373.470574" id="Path" stroke="#7A73FD" stroke-width="3.71712004"></path>
                            <rect id="Rectangle" fill="#FFFFFF" fill-rule="nonzero" opacity="0.3" x="212.272419" y="358.071756" width="19.9560934" height="5.92845023"></rect>
                            <path d="M152.688144,375.099477 L228.214573,406.730506" id="Path" stroke="#FFFFFF" stroke-width="1.85856002" opacity="0.3"></path>
                            <path d="M74.8139384,219.311927 L58.000835,234.464516 L120.993172,329.414423 C123.947192,333.874679 129.052316,336.423365 134.391125,336.10323 C139.729933,335.783094 144.494166,332.642602 146.894439,327.861283 L146.894439,327.861283 L171.205278,272.383868 L154.335373,180.843294 L132.52378,271.758824 L74.8139384,219.311927 Z" id="Path" fill="#7FB0FF" fill-rule="nonzero"></path>
                            <path d="M380.195182,218.630061 L397.027219,233.782649 L334.015949,328.751497 C331.058795,333.210162 325.95148,335.755538 320.612501,335.431488 C315.273522,335.107438 310.511292,331.963028 308.114681,327.179416 L308.114681,327.179416 L282.024077,267.591862 L297.909431,178.324176 L322.371739,271.020136 L380.195182,218.630061 Z" id="Path" fill="#7FB0FF" fill-rule="nonzero"></path>
                            <path d="M199.776193,28.1430836 C199.776193,28.1430836 205.778168,48.0876781 233.231997,49.9249294 C261.48104,51.819003 272.992714,44.4699976 273.390321,36.8937034 C273.787929,29.3174092 274.961817,3.04660895 241.203074,0.451728184 C215.945552,-1.44234537 206.762719,3.02766822 199.132448,6.30441547 C194.126004,8.55814948 189.953592,12.3279708 187.204233,17.081694 C182.300411,25.2072695 177.585926,32.2342824 182.508682,56.3268981 C182.735886,56.3268981 198.88631,44.0911829 199.776193,28.1430836 Z" id="Path" fill="#41468E" fill-rule="nonzero"></path>
                            <polygon id="Path" fill="#41468E" fill-rule="nonzero" points="188.794662 60.2476303 188.264519 51.1560772 182.641217 56.3268981 184.023376 62.1606446"></polygon>
                            <polygon id="Path" fill="#41468E" fill-rule="nonzero" points="264.851234 44.4699976 264.851234 59.3005935 268.675836 59.3005935 272.102832 40.6818505"></polygon>
                        </g>
                        <g id="Group-6" transform="translate(58.594339, 302.831528)" fill-rule="nonzero">
                            <g id="Rectangle">
                                <use fill="black" fill-opacity="1" filter="url(#filter-2)" xlink:href="#path-1"></use>
                                <use fill="#FFFFFF" xlink:href="#path-1"></use>
                            </g>
                            <ellipse id="Oval" fill="#41468E" cx="73.1634997" cy="53.4772948" rx="29.8984629" ry="29.9046134"></ellipse>
                            <ellipse id="Oval" fill="#FFFFFF" cx="72.7334298" cy="45.0633961" rx="6.81230799" ry="6.81370937"></ellipse>
                            <path d="M72.7334298,53.7698025 C64.4079094,53.7792976 57.6637788,60.5325214 57.6637788,68.8597599 C57.6637788,68.9457916 57.6637788,69.0490296 57.6637788,69.1350613 C66.1081111,76.9511687 79.0872365,77.136729 87.7514724,69.5652197 C87.7514724,69.324331 87.7514724,69.0834423 87.7514724,68.8597599 C87.7514724,60.5526107 81.0387841,53.8076914 72.7334298,53.7698025 L72.7334298,53.7698025 Z" id="Path" fill="#FFFFFF"></path>
                        </g>
                        <path d="M111.781056,414.923923 C111.781056,418.124922 111.266573,420.502532 110.237592,422.056823 C109.208611,423.611114 107.635763,424.388248 105.519002,424.388248 C103.46944,424.388248 101.915492,423.58591 100.857111,421.981209 C99.7987304,420.376509 99.2695481,418.024103 99.2695481,414.923923 C99.2695481,411.672514 99.7840309,409.276001 100.813012,407.734312 C101.841993,406.192623 103.410641,405.42179 105.519002,405.42179 C107.576964,405.42179 109.135112,406.228329 110.193493,407.841432 C111.251873,409.454534 111.781056,411.81534 111.781056,414.923923 Z M102.268278,414.923923 C102.268278,417.435993 102.526569,419.229702 103.04316,420.305104 C103.55975,421.380505 104.385023,421.918198 105.519002,421.918198 C106.652981,421.918198 107.482454,421.372104 108.007444,420.279899 C108.532434,419.187695 108.794925,417.402387 108.794925,414.923923 C108.794925,412.45386 108.532434,410.666452 108.007444,409.561645 C107.482454,408.456838 106.652981,407.904443 105.519002,407.904443 C104.385023,407.904443 103.55975,408.446336 103.04316,409.530139 C102.526569,410.613942 102.268278,412.411852 102.268278,414.923923 Z M120.248058,405.4722 C121.995226,405.4722 123.37698,405.873369 124.393361,406.675719 C125.409742,407.478069 125.917925,408.551354 125.917925,409.895606 C125.917925,411.78596 124.783963,413.289819 122.516005,414.407228 C123.960778,415.129764 124.987644,415.890095 125.596633,416.688244 C126.205622,417.486394 126.510111,418.376952 126.510111,419.359931 C126.510111,420.880616 125.95153,422.098826 124.834351,423.014598 C123.717171,423.930369 122.205222,424.388248 120.298457,424.388248 C118.299293,424.388248 116.749545,423.959774 115.649165,423.102814 C114.548785,422.245853 113.998604,421.031844 113.998604,419.46075 C113.998604,418.435758 114.286294,417.513699 114.861684,416.694545 C115.437073,415.875392 116.379942,415.146566 117.690318,414.508047 C116.564738,413.835921 115.762565,413.125999 115.283774,412.378259 C114.804983,411.630519 114.565591,410.790374 114.565591,409.857799 C114.565591,408.521949 115.090573,407.457065 116.140554,406.663117 C117.190535,405.869168 118.559689,405.4722 120.248058,405.4722 Z M116.833538,419.359931 C116.833538,420.233695 117.140127,420.912112 117.753316,421.395202 C118.366505,421.878293 119.198077,422.119835 120.248058,422.119835 C121.331638,422.119835 122.17371,421.869891 122.774299,421.369998 C123.374888,420.870104 123.675178,420.191687 123.675178,419.334727 C123.675178,418.654199 123.397987,418.032492 122.843597,417.469587 C122.289207,416.906681 121.449235,416.385792 120.323656,415.906902 L119.958265,415.743072 C118.849485,416.230363 118.051512,416.765956 117.564321,417.349865 C117.077129,417.933774 116.833538,418.60379 116.833538,419.359931 Z M120.222858,407.753215 C119.382874,407.753215 118.706696,407.961151 118.194306,408.377029 C117.681915,408.792907 117.425724,409.357904 117.425724,410.072038 C117.425724,410.50892 117.518121,410.899587 117.702917,411.244052 C117.887714,411.588516 118.156505,411.90147 118.509298,412.182923 C118.862092,412.464376 119.458472,412.802534 120.298457,413.197408 C121.306438,412.752125 122.018314,412.283744 122.434107,411.792252 C122.849899,411.30076 123.057792,410.727361 123.057792,410.072038 C123.057792,409.357904 122.799501,408.792907 122.28291,408.377029 C121.76632,407.961151 121.079643,407.753215 120.222858,407.753215 Z M129.294646,422.560915 C129.294646,421.9476 129.454241,421.477119 129.773435,421.149458 C130.092629,420.821796 130.554614,420.657968 131.159403,420.657968 C131.772592,420.657968 132.238776,420.828097 132.55797,421.168361 C132.877164,421.508625 133.036759,421.972805 133.036759,422.560915 C133.036759,423.157427 132.875064,423.630008 132.55167,423.978673 C132.228276,424.327339 131.764192,424.501669 131.159403,424.501669 C130.554614,424.501669 130.092629,424.329439 129.773435,423.984975 C129.454241,423.64051 129.294646,423.165828 129.294646,422.560915 Z M129.294646,411.798553 C129.294646,410.529915 129.916226,409.895606 131.159403,409.895606 C131.789391,409.895606 132.259776,410.063635 132.57057,410.399698 C132.881364,410.735761 133.036759,411.202041 133.036759,411.798553 C133.036759,412.395065 132.875064,412.867646 132.55167,413.216311 C132.228276,413.564977 131.764192,413.739307 131.159403,413.739307 C130.554614,413.739307 130.092629,413.567077 129.773435,413.222613 C129.454241,412.878148 129.294646,412.403466 129.294646,411.798553 Z M148.987986,420.116069 L146.505844,420.116069 L146.505844,424.136202 L143.620512,424.136202 L143.620512,420.116069 L135.203908,420.116069 L135.203908,417.835053 L143.620512,405.661234 L146.505844,405.661234 L146.505844,417.658621 L148.987986,417.658621 L148.987986,420.116069 Z M143.620512,417.658621 L143.620512,413.033578 C143.620512,411.38687 143.66251,410.038437 143.746509,408.988241 L143.645711,408.988241 C143.410515,409.542744 143.040928,410.21486 142.536937,411.004608 L137.963244,417.658621 L143.620512,417.658621 Z M156.825003,412.630305 C158.681369,412.630305 160.15132,413.121789 161.2349,414.104773 C162.31848,415.087757 162.860262,416.427788 162.860262,418.124906 C162.860262,420.090874 162.244982,421.626239 161.014405,422.731046 C159.783828,423.835853 158.034586,424.388248 155.766628,424.388248 C153.708666,424.388248 152.091719,424.056391 150.915741,423.392667 L150.915741,420.708377 C151.596129,421.09485 152.377303,421.393101 153.259286,421.60314 C154.14127,421.81318 154.960243,421.918198 155.716229,421.918198 C157.051804,421.918198 158.06817,421.619946 158.765358,421.023435 C159.462545,420.426923 159.811133,419.553172 159.811133,418.402157 C159.811133,416.200944 158.40838,415.100355 155.602832,415.100355 C155.208039,415.100355 154.720855,415.140262 154.141266,415.220077 C153.561676,415.299892 153.053493,415.390207 152.616701,415.491026 L151.293732,414.709684 L151.999316,405.711643 L161.575092,405.711643 L161.575092,408.345523 L154.607455,408.345523 L154.191665,412.907555 C154.485659,412.857146 154.844747,412.798336 155.268939,412.731123 C155.693132,412.66391 156.211814,412.630305 156.825003,412.630305 Z" id="08:45" fill="#41468E" fill-rule="nonzero"></path>
                        <g id="Group-7" transform="translate(662.412547, 13.765069)" fill-rule="nonzero">
                            <g id="Group-6">
                                <g id="Rectangle">
                                    <use fill="black" fill-opacity="1" filter="url(#filter-4)" xlink:href="#path-3"></use>
                                    <use fill="#FFFFFF" xlink:href="#path-3"></use>
                                </g>
                                <ellipse id="Oval" fill="#41468E" cx="58.5307998" cy="42.7818358" rx="23.9187703" ry="23.9236907"></ellipse>
                                <ellipse id="Oval" fill="#FFFFFF" cx="58.1867438" cy="36.0507169" rx="5.4498464" ry="5.4509675"></ellipse>
                                <path d="M58.1867438,43.015842 C51.5263275,43.0234381 46.131023,48.4260171 46.131023,55.0878079 C46.131023,55.1566332 46.131023,55.2392237 46.131023,55.308049 C52.8864889,61.560935 63.2697892,61.7093832 70.2011779,55.6521757 C70.2011779,55.4594648 70.2011779,55.2667538 70.2011779,55.0878079 C70.2011779,48.4420886 64.8310272,43.0461531 58.1867438,43.015842 L58.1867438,43.015842 Z" id="Path" fill="#FFFFFF"></path>
                            </g>
                            <path d="M40.2034764,97.0437396 L37.8347318,97.0437396 L37.8347318,87.5264845 C37.8347318,86.3905918 37.8616109,85.4899566 37.9153699,84.8245519 C37.7608127,84.9858621 37.5709791,85.1639728 37.3458632,85.3588893 C37.1207474,85.5538059 36.3664525,86.1721524 35.0829561,87.2139475 L33.8935439,85.7117537 L38.2278426,82.3040924 L40.2034764,82.3040924 L40.2034764,97.0437396 Z M55.0207301,89.673916 C55.0207301,92.2347156 54.6091439,94.1368034 53.785959,95.3802363 C52.9627741,96.6236692 51.7044961,97.2453763 50.0110872,97.2453763 C48.3714373,97.2453763 47.1282788,96.6035057 46.2815744,95.3197453 C45.4348699,94.0359848 45.0115241,92.1540605 45.0115241,89.673916 C45.0115241,87.0727888 45.4231103,85.1555784 46.2462952,83.9222274 C47.0694801,82.6888764 48.3243982,82.0722102 50.0110872,82.0722102 C51.657457,82.0722102 52.9039754,82.7174413 53.7506798,84.0079231 C54.5973843,85.2984048 55.0207301,87.1870502 55.0207301,89.673916 Z M47.410508,89.673916 C47.410508,91.6835724 47.6171411,93.1185397 48.0304135,93.9788608 C48.4436859,94.839182 49.1039039,95.2693361 50.0110872,95.2693361 C50.9182706,95.2693361 51.5818484,94.8324608 52.0018407,93.9586971 C52.421833,93.0849335 52.631826,91.6566874 52.631826,89.673916 C52.631826,87.6978659 52.421833,86.2679395 52.0018407,85.3840939 C51.5818484,84.5002484 50.9182706,84.0583322 50.0110872,84.0583322 C49.1039039,84.0583322 48.4436859,84.4918469 48.0304135,85.3588893 C47.6171411,86.2259317 47.410508,87.6642596 47.410508,89.673916 Z M57.2483581,95.7835098 C57.2483581,95.2928579 57.3760338,94.9164731 57.6313891,94.654344 C57.8867444,94.3922149 58.2563321,94.2611523 58.7401632,94.2611523 C59.2307142,94.2611523 59.6036618,94.3972557 59.8590171,94.6694667 C60.1143724,94.9416777 60.2420481,95.3130217 60.2420481,95.7835098 C60.2420481,96.2607192 60.1126924,96.6387843 59.8539772,96.9177166 C59.5952619,97.1966488 59.2239943,97.3361129 58.7401632,97.3361129 C58.2563321,97.3361129 57.8867444,97.1983291 57.6313891,96.9227575 C57.3760338,96.6471859 57.2483581,96.2674404 57.2483581,95.7835098 Z M57.2483581,87.1736202 C57.2483581,86.1587101 57.7456215,85.6512626 58.7401632,85.6512626 C59.244154,85.6512626 59.6204614,85.7856858 59.8690968,86.0545362 C60.1177323,86.3233865 60.2420481,86.6964108 60.2420481,87.1736202 C60.2420481,87.6508296 60.1126924,88.0288947 59.8539772,88.307827 C59.5952619,88.5867592 59.2239943,88.7262232 58.7401632,88.7262232 C58.2563321,88.7262232 57.8867444,88.5884395 57.6313891,88.3128679 C57.3760338,88.0372963 57.2483581,87.6575508 57.2483581,87.1736202 Z M71.9244951,85.69159 C71.9244951,86.625845 71.6523442,87.403819 71.1080342,88.0255355 C70.5637242,88.6472519 69.7976697,89.065644 68.8098479,89.2807243 L68.8098479,89.361379 C69.9925462,89.5092467 70.8795566,89.8772301 71.4709057,90.4653403 C72.0622548,91.0534504 72.357925,91.8347851 72.357925,92.8093676 C72.357925,94.2275532 71.8573017,95.3214217 70.8560401,96.0910059 C69.8547785,96.86059 68.430186,97.2453763 66.58222,97.2453763 C64.9492899,97.2453763 63.5717359,96.9798906 62.4495165,96.4489111 L62.4495165,94.341807 C63.0744651,94.6509849 63.736363,94.889586 64.4352301,95.0576175 C65.1340973,95.2256489 65.8060749,95.3096634 66.451183,95.3096634 C67.593562,95.3096634 68.4469735,95.0979469 69.0114432,94.6745076 C69.5759128,94.2510683 69.8581434,93.5957554 69.8581434,92.7085492 C69.8581434,91.9221619 69.5456738,91.3441423 68.9207253,90.9744731 C68.2957768,90.6048039 67.3146895,90.419972 65.9774341,90.419972 L64.697304,90.419972 L64.697304,88.494341 L65.9975936,88.494341 C68.3495504,88.494341 69.5255112,87.6810808 69.5255112,86.0545362 C69.5255112,85.4227378 69.320558,84.9354539 68.9106455,84.5926697 C68.5007331,84.2498855 67.8959532,84.0784959 67.0962879,84.0784959 C66.5385382,84.0784959 66.0009561,84.1574695 65.4835256,84.3154191 C64.9660951,84.4733687 64.3545955,84.7808617 63.6490085,85.2379073 L62.4898356,83.5844859 C63.8405308,82.5897395 65.4095984,82.0923738 67.1970856,82.0923738 C68.6821783,82.0923738 69.8413396,82.4116289 70.6746043,83.0501485 C71.507869,83.688668 71.9244951,84.5691398 71.9244951,85.69159 Z M84.2621268,89.673916 C84.2621268,92.2347156 83.8505405,94.1368034 83.0273556,95.3802363 C82.2041707,96.6236692 80.9458927,97.2453763 79.2524838,97.2453763 C77.612834,97.2453763 76.3696754,96.6035057 75.522971,95.3197453 C74.6762666,94.0359848 74.2529207,92.1540605 74.2529207,89.673916 C74.2529207,87.0727888 74.664507,85.1555784 75.4876918,83.9222274 C76.3108767,82.6888764 77.5657948,82.0722102 79.2524838,82.0722102 C80.8988536,82.0722102 82.145372,82.7174413 82.9920764,84.0079231 C83.8387809,85.2984048 84.2621268,87.1870502 84.2621268,89.673916 Z M76.6519046,89.673916 C76.6519046,91.6835724 76.8585377,93.1185397 77.2718101,93.9788608 C77.6850825,94.839182 78.3453005,95.2693361 79.2524838,95.2693361 C80.1596672,95.2693361 80.823245,94.8324608 81.2432373,93.9586971 C81.6632296,93.0849335 81.8732226,91.6566874 81.8732226,89.673916 C81.8732226,87.6978659 81.6632296,86.2679395 81.2432373,85.3840939 C80.823245,84.5002484 80.1596672,84.0583322 79.2524838,84.0583322 C78.3453005,84.0583322 77.6850825,84.4918469 77.2718101,85.3588893 C76.8585377,86.2259317 76.6519046,87.6642596 76.6519046,89.673916 Z" id="10:30" fill="#41468E"></path>
                        </g>
                        <g id="Group-6" transform="translate(1224.083901, 149.695130)" fill-rule="nonzero">
                            <g id="Rectangle">
                                <use fill="black" fill-opacity="1" filter="url(#filter-6)" xlink:href="#path-5"></use>
                                <use fill="#FFFFFF" xlink:href="#path-5"></use>
                            </g>
                            <ellipse id="Oval" fill="#41468E" cx="73.1634997" cy="53.4772948" rx="29.8984629" ry="29.9046134"></ellipse>
                            <ellipse id="Oval" fill="#FFFFFF" cx="72.7334298" cy="45.0633961" rx="6.81230799" ry="6.81370937"></ellipse>
                            <path d="M72.7334298,53.7698025 C64.4079094,53.7792976 57.6637788,60.5325214 57.6637788,68.8597599 C57.6637788,68.9457916 57.6637788,69.0490296 57.6637788,69.1350613 C66.1081111,76.9511687 79.0872365,77.136729 87.7514724,69.5652197 C87.7514724,69.324331 87.7514724,69.0834423 87.7514724,68.8597599 C87.7514724,60.5526107 81.0387841,53.8076914 72.7334298,53.7698025 L72.7334298,53.7698025 Z" id="Path" fill="#FFFFFF"></path>
                            <path d="M49.2049749,120.788484 L46.2440441,120.788484 L46.2440441,108.891916 C46.2440441,107.47205 46.2776429,106.346256 46.3448417,105.5145 C46.1516453,105.716138 45.9143532,105.938776 45.6329583,106.182422 C45.3515635,106.426067 44.408695,107.199 42.8043244,108.501244 L41.3175592,106.623502 L46.7354326,102.363925 L49.2049749,102.363925 L49.2049749,120.788484 Z M61.4896878,109.282587 C63.3460537,109.282587 64.8160046,109.774071 65.8995847,110.757056 C66.9831648,111.74004 67.5249467,113.080071 67.5249467,114.777188 C67.5249467,116.743157 66.9096673,118.278521 65.6790899,119.383328 C64.4485125,120.488135 62.6992708,121.04053 60.4313125,121.04053 C58.3733503,121.04053 56.7564043,120.708673 55.5804259,120.044949 L55.5804259,117.360659 C56.2608134,117.747132 57.0419873,118.045383 57.9239711,118.255423 C58.8059549,118.465462 59.6249276,118.57048 60.3809137,118.57048 C61.7164891,118.57048 62.7328552,118.272229 63.4300424,117.675717 C64.1272296,117.079205 64.475818,116.205455 64.475818,115.054439 C64.475818,112.853227 63.0730648,111.752637 60.2675163,111.752637 C59.8727236,111.752637 59.3855398,111.792544 58.8059505,111.872359 C58.2263611,111.952174 57.7181781,112.042489 57.2813861,112.143308 L55.958417,111.361966 L56.6640005,102.363925 L66.2397768,102.363925 L66.2397768,104.997806 L59.2721396,104.997806 L58.8563493,109.559837 C59.1503439,109.509428 59.5094319,109.450618 59.9336241,109.383405 C60.3578163,109.316193 60.876499,109.282587 61.4896878,109.282587 Z M70.5110769,119.213197 C70.5110769,118.599882 70.6706716,118.129401 70.9898657,117.80174 C71.3090599,117.474078 71.7710445,117.31025 72.3758334,117.31025 C72.9890221,117.31025 73.4552065,117.48038 73.7744007,117.820643 C74.0935948,118.160907 74.2531895,118.625087 74.2531895,119.213197 C74.2531895,119.809709 74.0914949,120.28229 73.7681008,120.630956 C73.4447068,120.979621 72.9806222,121.153951 72.3758334,121.153951 C71.7710445,121.153951 71.3090599,120.981721 70.9898657,120.637257 C70.6706716,120.292792 70.5110769,119.81811 70.5110769,119.213197 Z M70.5110769,108.450835 C70.5110769,107.182198 71.1326562,106.547888 72.3758334,106.547888 C73.0058218,106.547888 73.4762061,106.715917 73.7870004,107.05198 C74.0977947,107.388043 74.2531895,107.854323 74.2531895,108.450835 C74.2531895,109.047347 74.0914949,109.519928 73.7681008,109.868594 C73.4447068,110.217259 72.9806222,110.391589 72.3758334,110.391589 C71.7710445,110.391589 71.3090599,110.219359 70.9898657,109.874895 C70.6706716,109.53043 70.5110769,109.055748 70.5110769,108.450835 Z M89.549232,111.576205 C89.549232,114.777204 89.0347492,117.154814 88.0057681,118.709105 C86.976787,120.263396 85.4039395,121.04053 83.2871784,121.04053 C81.237616,121.04053 79.6836679,120.238192 78.6252873,118.633491 C77.5669067,117.028791 77.0377244,114.676386 77.0377244,111.576205 C77.0377244,108.324796 77.5522072,105.928283 78.5811883,104.386594 C79.6101694,102.844905 81.1788171,102.074073 83.2871784,102.074073 C85.3451405,102.074073 86.9032885,102.880612 87.9616691,104.493714 C89.0200497,106.106816 89.549232,108.467623 89.549232,111.576205 Z M80.0364543,111.576205 C80.0364543,114.088275 80.2947457,115.881984 80.8113362,116.957386 C81.3279267,118.032787 82.1531992,118.57048 83.2871784,118.57048 C84.4211575,118.57048 85.2506298,118.024386 85.7756202,116.932181 C86.3006106,115.839977 86.5631018,114.054669 86.5631018,111.576205 C86.5631018,109.106142 86.3006106,107.318734 85.7756202,106.213927 C85.2506298,105.10912 84.4211575,104.556725 83.2871784,104.556725 C82.1531992,104.556725 81.3279267,105.098619 80.8113362,106.182422 C80.2947457,107.266225 80.0364543,109.064134 80.0364543,111.576205 Z M104.278288,111.576205 C104.278288,114.777204 103.763805,117.154814 102.734824,118.709105 C101.705843,120.263396 100.132995,121.04053 98.0162341,121.04053 C95.9666718,121.04053 94.4127236,120.238192 93.3543431,118.633491 C92.2959625,117.028791 91.7667802,114.676386 91.7667802,111.576205 C91.7667802,108.324796 92.281263,105.928283 93.3102441,104.386594 C94.3392252,102.844905 95.9078729,102.074073 98.0162341,102.074073 C100.074196,102.074073 101.632344,102.880612 102.690725,104.493714 C103.749105,106.106816 104.278288,108.467623 104.278288,111.576205 Z M94.7655101,111.576205 C94.7655101,114.088275 95.0238015,115.881984 95.540392,116.957386 C96.0569825,118.032787 96.882255,118.57048 98.0162341,118.57048 C99.1502133,118.57048 99.9796856,118.024386 100.504676,116.932181 C101.029666,115.839977 101.292158,114.054669 101.292158,111.576205 C101.292158,109.106142 101.029666,107.318734 100.504676,106.213927 C99.9796856,105.10912 99.1502133,104.556725 98.0162341,104.556725 C96.882255,104.556725 96.0569825,105.098619 95.540392,106.182422 C95.0238015,107.266225 94.7655101,109.064134 94.7655101,111.576205 Z" id="15:00" fill="#41468E"></path>
                        </g>
                        <path d="M327.846507,410.371133 L417.227093,410.371133 C420.026514,410.371133 422.295893,412.640512 422.295893,415.439933 L422.295893,504.840991 C422.295893,507.640412 420.026514,509.909791 417.227093,509.909791 L327.846507,509.909791 C325.047086,509.909791 322.777707,507.640412 322.777707,504.840991 L322.777707,415.439933 C322.777707,412.640512 325.047086,410.371133 327.846507,410.371133 Z" id="Rectangle" stroke="#7A73FD" stroke-width="1.68960002" stroke-dasharray="10.05311965942383"></path>
                        <path d="M560.08428,293.522899 L649.464866,293.522899 C652.264287,293.522899 654.533666,295.792279 654.533666,298.5917 L654.533666,387.992758 C654.533666,390.792179 652.264287,393.061558 649.464866,393.061558 L560.08428,393.061558 C557.284859,393.061558 555.01548,390.792179 555.01548,387.992758 L555.01548,298.5917 C555.01548,295.792279 557.284859,293.522899 560.08428,293.522899 Z" id="Rectangle" stroke="#7A73FD" stroke-width="1.68960002" stroke-dasharray="10.05311965942383"></path>
                        <rect id="Rectangle" stroke="#41468E" stroke-width="1.68960002" x="1172.28628" y="95.5984073" width="78.4447587" height="78.4608958" rx="5.06880005"></rect>
                        <path d="M1298.10754,293.970264 L1298.10754,453.64507 C1298.10754,456.495909 1295.79695,458.806971 1292.9467,458.806971 L1067.45243,458.806971" id="Path" stroke="#41468E" stroke-width="1.68960002"></path>
                        <path d="M372.545402,447.02063 L372.545402,470.355153 C372.545402,470.771768 370.132796,471.109502 367.156697,471.109502 L131.70623,471.109502" id="Path" stroke="#41468E" stroke-width="1.68960002" transform="translate(252.125816, 459.065066) scale(-1, 1) translate(-252.125816, -459.065066) "></path>
                        <path d="M723.48248,131.28435 L723.48248,342.961806 C723.48248,346.741102 722.190013,349.804827 720.595674,349.804827 L594.461495,349.804827" id="Path" stroke="#41468E" stroke-width="1.68960002"></path>
                        <ellipse id="Oval" fill="#FFFFFF" fill-rule="nonzero" cx="846.706122" cy="326.834368" rx="26.4923089" ry="26.4977587"></ellipse>
                        <path d="M1227.7481,142.778183 C1227.31803,142.399643 1222.94852,138.56263 1221.86474,137.616282 C1220.85519,136.722013 1219.35965,136.650442 1218.26936,137.444218 C1216.96194,138.390567 1214.98362,139.835899 1214.67397,140.025169 L1214.62236,140.025169 C1212.4134,138.443832 1210.49306,136.493991 1208.94544,134.261046 C1207.87455,132.429292 1206.98166,130.499092 1206.279,128.496923 C1206.15859,128.204415 1206.07257,127.929114 1205.96935,127.705432 C1205.8686,127.480697 1205.92418,127.216617 1206.10698,127.051591 C1207.08142,126.479738 1208.00769,125.829485 1208.87663,125.107275 C1209.69002,124.355166 1210.10929,123.268661 1210.01201,122.164991 C1210.01201,121.493944 1209.15187,115.609377 1208.87663,114.439346 C1208.54977,112.976807 1206.91551,112.047665 1204.05984,111.651919 C1202.06432,111.376618 1199.53551,113.733886 1198.74418,114.525378 C1196.85187,116.246011 1196.14656,118.327978 1195.99173,122.973689 C1195.83691,127.6194 1198.79579,133.658824 1202.04712,139.250884 C1205.68625,144.8438 1211.00433,149.138895 1217.23719,151.519002 C1220.12329,152.151367 1223.14241,151.579729 1225.59775,149.936019 L1225.59775,149.936019 C1226.9881,148.739385 1227.98365,147.149764 1228.45341,145.37634 C1228.75488,144.447036 1228.47807,143.427368 1227.7481,142.778183 L1227.7481,142.778183 Z" id="Path" fill="#7FB0FF" fill-rule="nonzero"></path>
                        <path d="M568.141214,551.187793 C568.141214,551.187793 587.631984,539.470278 584.191425,548.073446 C580.750865,556.676614 586.014921,562.423531 591.709048,557.26163 C597.403174,552.099729 611.64709,543.961132 614.554363,551.187793 C617.461636,558.414455 639.825274,551.187793 639.825274,551.187793" id="Path" stroke="#FFFFFF" stroke-width="1.68960002"></path>
                    </g>
                    <g id="Group-5" transform="translate(783.000000, 302.000000)">
                        <rect id="Rectangle" fill="#7A73FD" x="0" y="0" width="98" height="46" rx="23"></rect>
                        <g id="Group-4" transform="translate(7.669565, 5.111111)" fill-rule="nonzero">
                            <ellipse id="Oval" fill="#FFFFFF" cx="18.1961043" cy="18.1892275" rx="18.1961043" ry="18.1892275"></ellipse>
                            <ellipse id="Oval" fill="#7FB0FF" cx="17.9343652" cy="13.071545" rx="4.14594783" ry="4.14438095"></ellipse>
                            <path d="M17.9343652,18.3671429 C12.8674814,18.3729182 8.76302609,22.4805093 8.76302609,27.5454815 C8.76302609,27.5978095 8.76302609,27.6606032 8.76302609,27.7129312 C13.9022185,32.4670123 21.8012707,32.5798778 27.0742957,27.9745714 C27.0742957,27.8280529 27.0742957,27.6815344 27.0742957,27.5454815 C27.0742957,22.4927284 22.988976,18.3901885 17.9343652,18.3671429 L17.9343652,18.3671429 Z" id="Path" fill="#7FB0FF"></path>
                        </g>
                    </g>
                    <g id="Group-5" transform="translate(1022.000000, 302.000000)" fill="url(#linearGradient-7)" opacity="0.932570685">
                        <rect id="Rectangle" x="0" y="0" width="176" height="46" rx="23"></rect>
                    </g>
                    <rect id="Rectangle" fill="#7A73FD" x="1015" y="302" width="98" height="46" rx="23"></rect>
                    <g id="Group-4" transform="translate(1022.000000, 307.000000)" fill-rule="nonzero">
                        <circle id="Oval" fill="#FFFFFF" cx="18.3731429" cy="18.3731429" r="18.3731429"></circle>
                        <circle id="Oval" fill="#7FB0FF" cx="18.1088571" cy="13.2037143" r="4.18628571"></circle>
                        <path d="M18.1088571,18.5528571 C12.9926752,18.5586909 8.84828571,22.7078147 8.84828571,27.824 C8.84828571,27.8768571 8.84828571,27.9402857 8.84828571,27.9931429 C14.0374797,32.7952935 22.0133856,32.9093002 27.3377143,28.2574286 C27.3377143,28.1094286 27.3377143,27.9614286 27.3377143,27.824 C27.3377143,22.7201574 23.2126466,18.5761358 18.1088571,18.5528571 L18.1088571,18.5528571 Z" id="Path" fill="#7FB0FF"></path>
                    </g>
                    <rect id="Rectangle" fill="url(#linearGradient-8)" opacity="0.932570685" transform="translate(417.000000, 325.000000) rotate(-180.000000) translate(-417.000000, -325.000000) " x="312" y="302" width="210" height="46" rx="23"></rect>
                    <g id="Group-5" transform="translate(436.000000, 302.000000)">
                        <rect id="Rectangle" fill="#7A73FD" x="0" y="0" width="98" height="46" rx="23"></rect>
                        <g id="Group-4" transform="translate(8.521739, 5.111111)" fill-rule="nonzero">
                            <ellipse id="Oval" fill="#FFFFFF" cx="18.1961043" cy="18.1892275" rx="18.1961043" ry="18.1892275"></ellipse>
                            <ellipse id="Oval" fill="#7FB0FF" cx="17.9343652" cy="13.071545" rx="4.14594783" ry="4.14438095"></ellipse>
                            <path d="M17.9343652,18.3671429 C12.8674814,18.3729182 8.76302609,22.4805093 8.76302609,27.5454815 C8.76302609,27.5978095 8.76302609,27.6606032 8.76302609,27.7129312 C13.9022185,32.4670123 21.8012707,32.5798778 27.0742957,27.9745714 C27.0742957,27.8280529 27.0742957,27.6815344 27.0742957,27.5454815 C27.0742957,22.4927284 22.988976,18.3901885 17.9343652,18.3671429 L17.9343652,18.3671429 Z" id="Path" fill="#7FB0FF"></path>
                        </g>
                    </g>
                    <g id="Group-5" transform="translate(678.000000, 415.000000)" fill="url(#linearGradient-7)" opacity="0.932570685">
                        <rect id="Rectangle" x="0" y="0" width="176" height="46" rx="23"></rect>
                    </g>
                    <rect id="Rectangle" fill="#7A73FD" x="670" y="415" width="98" height="46" rx="23"></rect>
                    <g id="Group-4" transform="translate(678.000000, 420.000000)" fill-rule="nonzero">
                        <circle id="Oval" fill="#FFFFFF" cx="18.3731429" cy="18.3731429" r="18.3731429"></circle>
                        <circle id="Oval" fill="#7FB0FF" cx="18.1088571" cy="13.2037143" r="4.18628571"></circle>
                        <path d="M18.1088571,18.5528571 C12.9926752,18.5586909 8.84828571,22.7078147 8.84828571,27.824 C8.84828571,27.8768571 8.84828571,27.9402857 8.84828571,27.9931429 C14.0374797,32.7952935 22.0133856,32.9093002 27.3377143,28.2574286 C27.3377143,28.1094286 27.3377143,27.9614286 27.3377143,27.824 C27.3377143,22.7201574 23.2126466,18.5761358 18.1088571,18.5528571 L18.1088571,18.5528571 Z" id="Path" fill="#7FB0FF"></path>
                    </g>
                </g>
                <g id="Group-2" transform="translate(1202.000000, 625.000000)">
                    <rect id="Rectangle" fill="#7FB0FF" fill-rule="nonzero" x="33" y="199" width="106" height="17"></rect>
                    <polygon id="Path" fill="#7FB0FF" fill-rule="nonzero" points="57.6505288 300 114.367803 300 125 216 47 216"></polygon>
                    <polygon id="Path" fill="#2D2968" fill-rule="nonzero" points="125 216 48.8331375 231 47 216"></polygon>
                    <path d="M93.0960541,199 C93.0960541,199 86.2120398,79.9825625 189,79" id="Path" stroke="#2D2968"></path>
                    <circle id="Oval" stroke="#E8EFF7" fill="#FFFFFF" fill-rule="nonzero" cx="214.5" cy="81.5" r="25.5"></circle>
                    <circle id="Oval" fill="#41468E" fill-rule="nonzero" cx="215" cy="81" r="5"></circle>
                    <path d="M69.7467978,200 C69.7467978,200 10.3251891,97.3859497 38.6551589,32 C38.6551589,32 99.5033252,98.8430182 86.0607636,200 L69.7467978,200 Z" id="Path" fill="#42478E" fill-rule="nonzero"></path>
                    <path d="M101,200 C102.051263,196.629357 99.6043573,156.734202 131.81289,135 C131.81289,135 135.329185,178.063191 111.875138,200 L101,200 Z" id="Path" fill="#42478E" fill-rule="nonzero"></path>
                    <circle id="Oval" stroke="#E8EFF7" fill="#FFFFFF" fill-rule="nonzero" cx="25.5" cy="139.5" r="25.5"></circle>
                    <circle id="Oval" fill="#41468E" fill-rule="nonzero" cx="26" cy="140" r="5"></circle>
                    <circle id="Oval" stroke="#E8EFF7" fill="#FFFFFF" fill-rule="nonzero" cx="99.5" cy="25.5" r="25.5"></circle>
                    <circle id="Oval" fill="#41468E" fill-rule="nonzero" cx="99" cy="25" r="5"></circle>
                    <path d="M92,50 C92,50 62.9052433,120.479951 78.6959873,200" id="Path" stroke="#2D2968"></path>
                    <path d="M10,300 L58,300" id="Path" stroke="#7FB0FF"></path>
                </g>
            </g>
        </g>
    </g>
</svg>