<?xml version="1.0" encoding="UTF-8"?>
<svg width="50px" height="36px" viewBox="0 0 50 36" version="1.1" xmlns="http://www.w3.org/2000/svg" xmlns:xlink="http://www.w3.org/1999/xlink">
    <!-- Generator: Sketch 53 (72520) - https://sketchapp.com -->
    <title>play_ico</title>
    <desc>Created with Sketch.</desc>
    <g id="Dashboard" stroke="none" stroke-width="1" fill="none" fill-rule="evenodd" stroke-linecap="round" stroke-linejoin="round">
        <g id="Dashboard---Start" transform="translate(-1234.000000, -2042.000000)" stroke="#3A4A66">
            <g id="Shortcuts" transform="translate(323.000000, 1508.000000)">
                <g id="Group-7" transform="translate(0.000000, 73.000000)">
                    <g id="play_ico" transform="translate(912.000000, 462.000000)">
                        <g id="Group-3">
                            <path d="M8.36363636,0.369565217 L39.6363636,0.369565217 C44.0539636,0.369565217 47.6363636,4.8591913 47.6363636,8.5 L47.6363636,25.5 C47.6363636,29.9896261 44.0539636,33.6304348 39.6363636,33.6304348 L8.36363636,33.6304348 C3.94603636,33.6304348 0.363636364,29.1408087 0.363636364,25.5 L0.363636364,8.5 C0.363636364,4.01037391 3.94603636,0.369565217 8.36363636,0.369565217 Z" id="Stroke-1" stroke-width="2.18400013"></path>
                            <path d="M30.5454545,15.6836087 C31.0312509,15.9376848 31.3380364,16.4458 31.3380364,17.0001478 C31.3380364,17.5544957 31.0312145,18.0626478 30.5454545,18.316687 L26,20.6958 L21.0256,23.2914043 C20.5767345,23.5223826 20.0397818,23.5021748 19.608,23.2365461 C19.1762182,22.9709174 18.9119782,22.494533 18.9091345,21.9806157 L18.9091345,12.0193548 C18.9091345,11.50254 19.1733382,11.0261113 19.6051564,10.7576591 C20.0369745,10.4891478 20.5738836,10.4689326 21.0255927,10.7028009 L25.9999927,13.3041704 L30.5454545,15.6836087 Z" id="Stroke-2" stroke-width="2.18400013"></path>
                        </g>
                    </g>
                </g>
            </g>
        </g>
    </g>
</svg>