<?xml version="1.0" encoding="UTF-8"?>
<svg width="183px" height="183px" viewBox="0 0 183 183" version="1.1" xmlns="http://www.w3.org/2000/svg" xmlns:xlink="http://www.w3.org/1999/xlink">
    <!-- Generator: Sketch 53 (72520) - https://sketchapp.com -->
    <title>support_ico</title>
    <desc>Created with Sketch.</desc>
    <g id="Dashboard" stroke="none" stroke-width="1" fill="none" fill-rule="evenodd">
        <g id="Dashboard---Start" transform="translate(-1305.000000, -1646.000000)">
            <g id="support_ico" transform="translate(1305.000000, 1646.000000)">
                <g id="Group-8">
                    <circle id="Oval" fill="#FFFFFF" cx="91.5" cy="91.5" r="91.5"></circle>
                    <g id="Group-30" transform="translate(35.000000, 21.000000)" fill="#3A4A66">
                        <path d="M104.833729,117.369863 L94.0556534,117.369863 C93.6052077,117.369863 93.2415946,117.01657 93.2415946,116.57891 C93.2415946,116.141249 93.6052077,115.787957 94.0556534,115.787957 L104.833729,115.787957 C107.606954,115.787957 109.8646,113.59439 109.8646,110.894614 L109.8646,106.006537 L1.62258546,106.006537 L1.62258546,110.894614 C1.62258546,113.589125 3.88023241,115.787957 6.65887482,115.787957 L80.4832357,115.787957 C80.9336814,115.787957 81.2972945,116.141249 81.2972945,116.57891 C81.2972945,117.01657 80.9336814,117.369863 80.4832357,117.369863 L6.66443211,117.369863 C2.99037496,117.369863 0,114.4645 0,110.894587 L0,105.215611 C0,104.77795 0.363613146,104.424658 0.814058866,104.424658 L110.678798,104.424658 C111.129244,104.424658 111.492857,104.77795 111.492857,105.215611 L111.492857,110.894587 C111.492857,114.464365 108.508039,117.369863 104.833841,117.369863 L104.833729,117.369863 Z" id="Fill-1"></path>
                        <path d="M102.89679,106.150685 L8.59606758,106.150685 C8.1437199,106.150685 7.77857143,105.787988 7.77857143,105.338677 L7.77857143,105.208756 C7.77857143,104.759445 8.1437199,104.396748 8.59606758,104.396748 C8.7595696,104.396748 8.91216126,104.445473 9.04296009,104.526668 L102.074061,104.526668 L102.074061,92.3411387 L89.9097008,92.3411387 L81.3369713,97.6245837 C81.0862701,97.7815695 80.7701764,97.7869881 80.5085788,97.6462441 C80.2469811,97.5055 80.0889343,97.2294166 80.0889343,96.9370914 L80.0889343,92.5901847 C80.0889343,92.1408736 80.4540827,91.7781764 80.9064304,91.7781764 C81.3587781,91.7781764 81.7239266,92.1408736 81.7239266,92.5901847 L81.7239266,95.4754654 L89.2448242,90.841555 C89.3756231,90.7603459 89.5227735,90.7170389 89.6753651,90.7170389 L102.62996,90.7170389 L102.86431,90.7116342 C103.082308,90.7062157 103.300306,90.7874248 103.458353,90.9389921 C103.616399,91.0905594 103.703599,91.3016894 103.703599,91.5236287 L103.703599,105.338607 C103.714509,105.787918 103.343905,106.150616 102.897013,106.150616 L102.89679,106.150685 Z M8.59606758,92.4819105 C8.1437199,92.4819105 7.77857143,92.1192132 7.77857143,91.6699022 L7.77857143,50.0037891 C7.77857143,49.5544781 8.1437199,49.1917808 8.59606758,49.1917808 L102.89679,49.1917808 C103.349137,49.1917808 103.714286,49.5544781 103.714286,50.0037891 L103.714286,65.78414 C103.714286,66.2334511 103.349137,66.5961483 102.89679,66.5961483 L92.4709721,66.5961483 C90.5906779,66.5961483 88.9721209,67.9332445 88.623324,69.7738373 C88.5524764,70.1581811 88.2145759,70.4342645 87.8221795,70.4342645 L79.7289759,70.4342645 C77.5707604,70.4342645 75.8158936,72.1773509 75.8158936,74.3156737 L75.8158936,82.9066591 C75.8158936,83.3559702 75.4507451,83.7186674 74.9983974,83.7186674 C74.5460497,83.7186674 74.1809013,83.3559702 74.1809013,82.9066591 L74.1809013,74.3156737 C74.1809013,71.2787842 76.67159,68.8102201 79.7290038,68.8102201 L87.1900479,68.8102201 C87.9148897,66.5474506 90.0404159,64.9667824 92.4765528,64.9667824 L102.079349,64.9667824 L102.079349,50.8106145 L9.41378697,50.8160331 L9.41378697,91.6755979 C9.41378697,92.1194904 9.0486385,92.4821876 8.59629081,92.4821876 L8.59606758,92.4819105 Z" id="Fill-2"></path>
                        <path d="M97.714376,106.150685 L28.7531116,106.150685 C28.3030588,106.150685 27.9397629,105.787708 27.9397629,105.33805 C27.9397629,104.888392 28.3030588,104.525414 28.7531116,104.525414 L96.9009579,104.525414 L96.9009579,92.3304756 L89.738023,92.3304756 L81.2088,97.6180002 C80.9593706,97.7751073 80.6448806,97.78053 80.3846101,97.6396773 C80.1243397,97.4988246 79.9670946,97.222528 79.9670946,96.9299771 L79.9670946,92.3304895 L79.6037987,92.3304895 C76.5618962,92.3304895 74.0838437,89.860158 74.0838437,86.8207848 L74.0838437,74.2954886 C74.0838437,71.2562541 76.5618962,68.7857839 79.6037987,68.7857839 L79.9942044,68.7857839 C80.4442572,68.7857839 80.8075531,69.1487612 80.8075531,69.5984192 C80.8075531,70.0480773 80.4442572,70.4110546 79.9942044,70.4110546 L79.6037987,70.4110546 C77.4565326,70.4110546 75.7105689,72.1554869 75.7105689,74.2954608 L75.7105689,86.8207571 C75.7105689,88.9661399 77.4565326,90.7051634 79.6037987,90.7051634 L80.7804433,90.7051634 C81.2304961,90.7051634 81.593792,91.0681407 81.593792,91.5177987 L81.593792,95.4672502 L89.0765334,90.8297617 C89.2066687,90.7484899 89.3530725,90.7051495 89.50489,90.7051495 L97.7143066,90.7051495 C98.1643593,90.7051495 98.5276553,91.0681268 98.5276553,91.5177848 L98.5276553,105.337883 C98.5276553,105.787541 98.1643593,106.150519 97.7143066,106.150519 L97.714376,106.150685 Z M15.1982254,106.150685 L13.7776344,106.150685 C13.3275817,106.150685 12.9642857,105.787708 12.9642857,105.33805 L12.9642857,55.1824983 C12.9642857,54.7328403 13.3275817,54.369863 13.7776344,54.369863 L97.7152227,54.369863 C98.1652755,54.369863 98.5285714,54.7328403 98.5285714,55.1824983 L98.5285714,65.7521386 C98.5285714,66.2017967 98.1652755,66.564774 97.7152227,66.564774 L92.2874382,66.564774 C92.1139245,66.564774 91.9349834,66.5756194 91.7668972,66.6027054 C91.322272,66.6623002 90.9101701,66.3534949 90.8505231,65.9092596 C90.790876,65.4650243 91.0999524,65.0532839 91.5445777,64.9936892 C91.7885795,64.9611804 92.0380088,64.9449261 92.2874382,64.9449261 L96.9072044,64.9449261 L96.9072044,56.0005841 L14.5909415,55.9951614 L14.5909415,104.525276 L15.1982392,104.525276 C15.648292,104.525276 16.0115879,104.888253 16.0115879,105.337911 C16.0115879,105.787569 15.648292,106.150546 15.1982392,106.150546 L15.1982254,106.150685 Z" id="Fill-3"></path>
                        <path d="M57.9496874,75.9452055 L22.428884,75.9452055 C21.9741874,75.9452055 21.6071429,75.5597258 21.6071429,75.0821918 C21.6071429,74.6046577 21.9741874,74.2191781 22.428884,74.2191781 L57.9496874,74.2191781 C58.404384,74.2191781 58.7714286,74.6046577 58.7714286,75.0821918 C58.7714286,75.5539669 58.404384,75.9452055 57.9496874,75.9452055 Z" id="Fill-4"></path>
                        <path d="M57.1021337,80.260274 L39.6978663,80.260274 C39.2524281,80.260274 38.8928571,79.8747943 38.8928571,79.3972603 C38.8928571,78.9197262 39.2524281,78.5342466 39.6978663,78.5342466 L57.1021337,78.5342466 C57.5475719,78.5342466 57.9071429,78.9197262 57.9071429,79.3972603 C57.9071429,79.8747943 57.5475719,80.260274 57.1021337,80.260274 Z" id="Fill-5"></path>
                        <path d="M45.8469596,84.5753425 L22.4316119,84.5753425 C21.9754059,84.5753425 21.6071429,84.1898628 21.6071429,83.7123288 C21.6071429,83.2347947 21.9754059,82.8493151 22.4316119,82.8493151 L45.8469596,82.8493151 C46.3031656,82.8493151 46.6714286,83.2347947 46.6714286,83.7123288 C46.6714286,84.1898628 46.3031656,84.5753425 45.8469596,84.5753425 Z" id="Fill-6"></path>
                        <path d="M57.9496874,88.0273973 L22.428884,88.0273973 C21.9741874,88.0273973 21.6071429,87.6419176 21.6071429,87.1643836 C21.6071429,86.6868495 21.9741874,86.3013699 22.428884,86.3013699 L57.9496874,86.3013699 C58.404384,86.3013699 58.7714286,86.6868495 58.7714286,87.1643836 C58.7714286,87.6419176 58.404384,88.0273973 57.9496874,88.0273973 Z" id="Fill-7"></path>
                        <path d="M57.094125,92.3424658 L26.7415892,92.3424658 C26.2917196,92.3424658 25.9285714,91.9569861 25.9285714,91.4794521 C25.9285714,91.001918 26.2917196,90.6164384 26.7415892,90.6164384 L57.094125,90.6164384 C57.5439947,90.6164384 57.9071429,91.001918 57.9071429,91.4794521 C57.9071429,91.9569861 57.5439947,92.3424658 57.094125,92.3424658 Z" id="Fill-8"></path>
                        <path d="M45.8469596,95.7945205 L22.4316119,95.7945205 C21.9754059,95.7945205 21.6071429,95.4090409 21.6071429,94.9315068 C21.6071429,94.4539728 21.9754059,94.0684932 22.4316119,94.0684932 L45.8469596,94.0684932 C46.3031656,94.0684932 46.6714286,94.4539728 46.6714286,94.9315068 C46.6714286,95.4090409 46.3031656,95.7945205 45.8469596,95.7945205 Z" id="Fill-9"></path>
                        <path d="M57.9496874,100.109589 L22.428884,100.109589 C21.9741874,100.109589 21.6071429,99.7241094 21.6071429,99.2465753 C21.6071429,98.7690413 21.9741874,98.3835616 22.428884,98.3835616 L57.9496874,98.3835616 C58.404384,98.3835616 58.7714286,98.7690413 58.7714286,99.2465753 C58.7714286,99.7241094 58.404384,100.109589 57.9496874,100.109589 Z" id="Fill-10"></path>
                        <path d="M55.3122239,33.6575342 C47.6877815,33.6575342 41.4857143,27.4642206 41.4857143,19.8493151 C41.4857143,12.2344096 47.6872317,6.04109589 55.3122239,6.04109589 C62.9372161,6.04109589 69.1428571,12.2344096 69.1428571,19.8493151 C69.1428571,27.4642206 62.9413398,33.6575342 55.3122239,33.6575342 Z M55.3122239,7.64580891 C48.5791714,7.64580891 43.0970889,13.1206395 43.0970889,19.8447851 C43.0970889,26.5742843 48.5738107,32.0437613 55.3122239,32.0437613 C62.0506371,32.0437613 67.5327196,26.5689307 67.5327196,19.8447851 C67.5327196,13.1206395 62.0506371,7.64580891 55.3122239,7.64580891 Z" id="Fill-11"></path>
                        <path d="M67.0671674,17.2602036 C63.3362427,17.2602036 59.8537036,15.7161349 57.2641892,12.9194533 C56.9735402,12.6062509 56.9682505,12.1062325 57.2536233,11.7875442 C58.373956,10.5292625 59.2194681,9.07315102 59.76386,7.45776566 C59.8378345,7.23797817 59.9963901,7.06214817 60.2024851,6.96873321 C60.4085802,6.88081821 60.6411103,6.88081821 60.8472054,6.97971906 C64.519957,8.77093442 67.2204061,12.1337886 68.2510169,16.2107939 C68.3144256,16.4525672 68.2668589,16.7053123 68.124186,16.908614 C67.9814996,17.1064157 67.7648251,17.2328023 67.5217428,17.2437882 C67.3684905,17.2547881 67.2205144,17.260274 67.0672621,17.260274 L67.0671674,17.2602036 Z M58.9236105,12.3040483 C60.9898377,14.287692 63.6004568,15.4360729 66.4065645,15.5898187 C65.4236286,12.7326515 63.4841106,10.35332 60.9316646,8.87536337 C60.4243411,10.1171592 59.7531995,11.265526 58.9234753,12.3040483 L58.9236105,12.3040483 Z" id="Fill-12"></path>
                        <path d="M47.9621994,17.2602596 C45.8680181,17.2602596 43.8453172,16.8050669 41.9600896,15.900321 C41.5753332,15.714869 41.3939585,15.2653013 41.5313615,14.8550798 C43.5211363,9.06695028 48.8856908,5.17808219 54.8878006,5.17808219 C56.9764943,5.17808219 58.9991951,5.63888544 60.8899104,6.54364573 C61.2746668,6.72909778 61.4560415,7.17866543 61.3186385,7.58888693 C59.3343514,13.3714059 53.9643092,17.260274 47.9621994,17.260274 L47.9621994,17.2602596 Z M43.3671859,14.6864308 C44.8292996,15.2764938 46.3737285,15.5743305 47.9676871,15.5743305 C53.0133936,15.5743305 57.5480427,12.4666312 59.4937754,7.75746401 C58.0316617,7.16179046 56.4872328,6.86395369 54.8987619,6.86395369 C49.8419393,6.86395369 45.3074309,9.97726363 43.3671859,14.6864308 Z" id="Fill-13"></path>
                        <path d="M81.2951789,50.0547808 L28.4690237,50.0547808 C28.0197832,50.0547808 27.6571429,49.6950111 27.6571429,49.2493266 L27.6571429,44.1266086 C27.6571429,43.7936856 27.8628219,43.4983588 28.1713267,43.3748615 L46.3255112,36.3030473 C46.6231944,36.190286 46.9587738,36.2547151 47.186096,36.469502 L54.6012948,43.5413162 L62.5901336,36.4534188 C62.8174558,36.2493678 63.1422137,36.1902997 63.4290753,36.3030611 L81.592959,43.3748753 C81.9014776,43.4983726 82.1071429,43.7937131 82.1071429,44.1266224 L82.1071429,49.2493404 C82.1071429,49.6950248 81.7445026,50.0547945 81.295262,50.0547945 L81.2951789,50.0547808 Z M29.2809877,48.443845 L80.483201,48.443845 L80.483201,44.6743186 L63.2989394,37.9836909 L55.1206885,45.2434178 C54.806766,45.5226476 54.3250469,45.5172728 54.0165421,45.221946 L46.4335467,37.9890245 L29.2756115,44.6742911 L29.2809877,48.443845 Z" id="Fill-14"></path>
                        <path d="M63.1476132,47.465725 L45.7521776,47.465725 C45.5312201,47.465725 45.3210512,47.3714175 45.1647696,47.2049732 C45.0138684,47.038529 44.9330374,46.8166081 44.9438121,46.589148 L45.4234454,37.0353983 C45.4450087,36.5749106 45.8276282,36.2253905 46.2749237,36.2475755 C46.7222191,36.2697604 47.061726,36.663679 47.0401766,37.1241667 L46.6036559,45.8013109 L62.3132145,45.8013109 L62.0275949,37.1797002 C62.011426,36.7192125 62.3617214,36.3364006 62.8090168,36.3197548 C63.2455375,36.2975698 63.6281571,36.6637358 63.6443261,37.1242235 L63.9568893,46.6113614 C63.9622836,46.8388357 63.8814387,47.0552032 63.7305514,47.2160941 C63.5742697,47.3714459 63.3641008,47.4657534 63.1485237,47.4657534 L63.1476132,47.465725 Z" id="Fill-15"></path>
                        <path d="M57.0904984,50.0547945 L51.8095016,50.0547945 C51.3576252,50.0547945 50.9928571,49.7146606 50.9928571,49.2933011 L50.9928571,46.5012194 C50.9928571,46.0798599 51.3576252,45.739726 51.8095016,45.739726 L57.0904984,45.739726 C57.5423748,45.739726 57.9071429,46.0798599 57.9071429,46.5012194 L57.9071429,49.2933011 C57.9071429,49.7146606 57.5423748,50.0547945 57.0904984,50.0547945 Z M52.6262296,48.5317818 L56.2739098,48.5317818 L56.2739098,47.2626348 L52.6262296,47.2626348 L52.6262296,48.5317818 Z" id="Fill-16"></path>
                        <path d="M54.3149355,45.739726 L53.9152044,45.739726 C53.7045387,45.739726 53.5046594,45.6567616 53.3534154,45.507454 L47.7842014,40.0268477 C47.6275504,39.8719902 47.5357143,39.6563111 47.5357143,39.4295606 L47.5357143,31.03444 C47.5357143,30.7413321 47.6869583,30.4703386 47.9354454,30.3210169 C48.1839325,30.1716951 48.4864343,30.1661594 48.7403145,30.3099597 C50.5337527,31.3220122 52.5809467,31.8585343 54.6444585,31.8585343 C56.5945754,31.8585343 58.4581248,31.4050474 60.1920998,30.5146524 C60.4459801,30.387445 60.7430887,30.3985164 60.9807618,30.547824 C61.2184487,30.6971458 61.3642857,30.9681393 61.3642857,31.2557115 L61.3642857,39.2084024 C61.3642857,39.4462101 61.2670564,39.6674249 61.0941983,39.8278039 L54.8551243,45.5350758 C54.7038664,45.6622831 54.5148149,45.7396977 54.3149494,45.7396977 L54.3149355,45.739726 Z M49.156156,39.0701519 L54.1258978,43.9644859 L59.7437887,38.8267802 L59.7437887,32.5221929 C58.1232087,33.1747802 56.4163379,33.5065954 54.6444724,33.5065954 C52.7538187,33.5065954 50.8793446,33.1084087 49.156156,32.3562783 L49.156156,39.0701519 Z" id="Fill-17"></path>
                        <path d="M74.3921195,24.1643836 L68.2088838,24.1643836 C67.9596511,24.1643836 67.7263153,24.0476854 67.572532,23.8461319 C67.4240431,23.6445648 67.3763252,23.3899581 67.4452616,23.1459565 C67.7528283,22.0744898 67.9066116,20.9605479 67.9066116,19.8360687 C67.9066116,18.7274634 67.7528283,17.6188852 67.4505561,16.5420684 C67.3816196,16.3033762 67.4293375,16.0434601 67.5831209,15.8472024 C67.7316098,15.6509447 67.97024,15.5342466 68.2194727,15.5342466 L74.3974139,15.5342466 C74.837559,15.5342466 75.1928571,15.8896369 75.1928571,16.3298961 L75.1928571,23.3740163 C75.1875627,23.8089661 74.8322646,24.1643564 74.3921195,24.1643564 L74.3921195,24.1643836 Z M69.2217523,22.573071 L73.5967306,22.573071 L73.5967306,17.1202633 L69.2270468,17.1255727 C69.4073431,18.0220058 69.497498,18.9290033 69.497498,19.8413781 C69.497498,20.764331 69.4073431,21.6820152 69.2217523,22.573071 L69.2217523,22.573071 Z" id="Fill-18"></path>
                        <path d="M42.4189181,24.16437 L42.4136107,24.16437 L36.2310683,24.16437 C35.7909726,24.16437 35.4357143,23.8091976 35.4357143,23.3692084 L35.4357143,16.3294081 C35.4357143,15.8894189 35.7909726,15.5342466 36.2310683,15.5342466 L42.403023,15.5342466 C42.6522278,15.5342466 42.8855374,15.6508732 43.0393035,15.8470105 C43.1877757,16.0431478 43.2407957,16.3029046 43.171867,16.5414503 C42.8696287,17.6175661 42.7158626,18.7255187 42.7158626,19.8334306 C42.7158626,20.9307437 42.8643348,22.0174989 43.1559583,23.0617642 C43.1930696,23.1571798 43.2142857,23.2579016 43.2142857,23.3639294 C43.2142857,23.8092112 42.8590274,24.1643836 42.4189317,24.1643836 L42.4189181,24.16437 Z M37.0263816,22.5740197 L41.4008693,22.5740197 C41.2205933,21.6781364 41.1251546,20.76111 41.1251546,19.8387096 C41.1251546,18.9322276 41.2152994,18.0205073 41.3955755,17.1245697 L37.0263816,17.1245697 L37.0263816,22.5740197 Z" id="Fill-19"></path>
                        <path d="M38.835929,17.2569324 C38.7767547,17.2569324 38.7122096,17.2514592 38.6476508,17.2350536 C38.2119202,17.1311745 37.9483418,16.6882641 38.0505507,16.2508269 C39.088766,11.7889675 41.2835865,7.72633073 44.2206819,4.81180917 C47.3998729,1.66226135 51.2298849,0 55.3075009,0 C59.4441949,0 63.3011982,1.6458837 66.464277,4.75707702 C69.4174845,7.66054017 71.590836,11.750613 72.5805633,16.2617453 C72.6773878,16.7046557 72.4030404,17.1420929 71.9673235,17.2405128 C71.5315928,17.3389466 71.1012466,17.0600647 71.0044222,16.6171683 C69.040942,7.66069415 62.7310343,1.64071844 55.3081482,1.64071844 C48.1268067,1.64071844 41.6769849,7.80305371 39.6215139,16.6283667 C39.5354447,17.0001813 39.2019229,17.2571844 38.8361356,17.2571844 L38.835929,17.2569324 Z" id="Fill-20"></path>
                        <path d="M81.0754755,97.5205479 C80.9388944,97.5205479 80.8023273,97.4876063 80.6766688,97.416242 C80.4144432,97.2735134 80.2560169,96.9935373 80.2560169,96.6970902 L80.2560169,92.0363482 L79.8899919,92.0363482 C76.8252389,92.0363482 74.3285714,89.5331177 74.3285714,86.4532672 L74.3285714,73.7611632 C74.3285714,70.6814533 76.8252389,68.1780822 79.8899919,68.1780822 L88.0026229,68.1780822 C88.2484576,68.1780822 88.4779015,68.2878831 88.6308735,68.4745292 C88.7838454,68.6611753 88.8493948,68.9082098 88.8056905,69.1497634 C88.7674406,69.3693512 88.7455954,69.5999149 88.7455954,69.8634202 L88.7455954,82.5555242 C88.7455954,84.7239975 90.5046747,86.4916616 92.6626166,86.4916616 L105.648308,86.4916616 C105.80128,86.4916616 105.94877,86.5355792 106.079883,86.6179194 L107.647782,87.6005765 C107.991948,87.8146693 108.128529,88.248364 107.970103,88.6216562 C107.096018,90.6968135 105.085621,92.0362639 102.851179,92.0362639 L90.0949874,92.0362639 L81.5016795,97.3942059 C81.376021,97.4765601 81.223063,97.5204777 81.0755594,97.5204777 L81.0754755,97.5205479 Z M79.8899919,69.825082 C77.7265957,69.825082 75.9675164,71.5927461 75.9675164,73.7612194 L75.9675164,86.4533234 C75.9675164,88.6272776 77.7265957,90.3894608 79.8899919,90.3894608 L81.0754755,90.3894608 C81.528909,90.3894608 81.894934,90.7572721 81.894934,91.2129186 L81.894934,95.2149675 L89.4338852,90.5157186 C89.564998,90.4333784 89.7125017,90.3894608 89.8654596,90.3894608 L102.851151,90.3894608 C104.195061,90.3894608 105.418725,89.7032508 106.134496,88.5943922 L105.413382,88.1442407 L92.6626446,88.1387457 C89.5978916,88.1387457 87.1066784,85.6355152 87.1066784,82.5556647 L87.1066784,69.8635608 L87.1066784,69.8196432 L79.8899919,69.825082 Z" id="Fill-21"></path>
                        <path d="M114.327517,94.0684932 C114.176251,94.0684932 114.030379,94.0245756 113.900717,93.9422214 L105.402461,88.584282 L92.7873678,88.584282 C89.7565145,88.584282 87.2928571,86.0810526 87.2928571,83.0012036 L87.2928571,70.3091057 C87.2928571,67.2293973 89.7563762,64.7260274 92.7873678,64.7260274 L115.500095,64.7260274 C118.530949,64.7260274 121,67.2292567 121,70.3091057 L121,83.0012036 C121,86.0809121 118.530949,88.584282 115.500095,88.584282 L115.138119,88.584282 L115.138119,93.2450218 C115.138119,93.5414687 114.976037,93.8214447 114.72212,93.9641732 C114.597852,94.0355515 114.462795,94.0684791 114.327725,94.0684791 L114.327517,94.0684932 Z M92.7876305,66.3730404 C90.653558,66.3730404 88.9139362,68.1407037 88.9139362,70.309176 L88.9139362,83.0012739 C88.9139362,85.1697462 90.653558,86.9374095 92.7876305,86.9374095 L105.629685,86.9374095 C105.780965,86.9374095 105.926823,86.981327 106.056486,87.0636671 L113.512047,91.7683947 L113.512047,87.7663477 C113.512047,87.3107015 113.874023,86.9428904 114.322441,86.9428904 L115.494812,86.9428904 C117.634279,86.9428904 119.3739,85.1752271 119.3739,83.0067548 L119.3739,70.3146569 C119.3739,68.1407037 117.634279,66.3785213 115.494812,66.3785213 L92.7876305,66.3730404 Z" id="Fill-22"></path>
                        <path d="M111.551184,72.4931507 L95.8773877,72.4931507 C95.4314238,72.4931507 95.0714286,72.107671 95.0714286,71.630137 C95.0714286,71.1526029 95.4314238,70.7671233 95.8773877,70.7671233 L111.551184,70.7671233 C111.997148,70.7671233 112.357143,71.1526029 112.357143,71.630137 C112.357143,72.107671 111.997148,72.4931507 111.551184,72.4931507 Z" id="Fill-23"></path>
                        <path d="M111.551184,79.3972603 L95.8773877,79.3972603 C95.4314238,79.3972603 95.0714286,79.0117806 95.0714286,78.5342466 C95.0714286,78.0567125 95.4314238,77.6712329 95.8773877,77.6712329 L111.551184,77.6712329 C111.997148,77.6712329 112.357143,78.0567125 112.357143,78.5342466 C112.357143,79.0117806 111.997148,79.3972603 111.551184,79.3972603 Z" id="Fill-24"></path>
                        <path d="M55.7464286,113.917808 C54.0789172,113.917808 52.7214286,112.562318 52.7214286,110.89726 C52.7214286,109.232203 54.0789172,107.876712 55.7464286,107.876712 C57.41394,107.876712 58.7714286,109.232203 58.7714286,110.89726 C58.7714286,112.562318 57.41394,113.917808 55.7464286,113.917808 Z M55.7464286,109.404661 C54.9177228,109.404661 54.2466835,110.074765 54.2466835,110.902199 C54.2466835,111.729633 54.9177748,112.399737 55.7464286,112.399737 C56.5750823,112.399737 57.2461736,111.729633 57.2461736,110.902199 C57.2461736,110.074765 56.5750823,109.404661 55.7464286,109.404661 Z" id="Fill-25"></path>
                        <path d="M70.0548687,122.547945 L12.0522742,122.547945 C11.6004446,122.547945 11.2357143,122.162466 11.2357143,121.684932 C11.2357143,121.207397 11.6004446,120.821918 12.0522742,120.821918 L70.0548687,120.821918 C70.5066983,120.821918 70.8714286,121.207397 70.8714286,121.684932 C70.8714286,122.162466 70.5066983,122.547945 70.0548687,122.547945 Z" id="Fill-26"></path>
                        <path d="M85.6176752,126 L45.7537534,126 C45.3050577,126 44.9428571,125.61452 44.9428571,125.136986 C44.9428571,124.659452 45.3050577,124.273973 45.7537534,124.273973 L85.6176752,124.273973 C86.0663709,124.273973 86.4285714,124.659452 86.4285714,125.136986 C86.4285714,125.608761 86.0609736,126 85.6176752,126 Z" id="Fill-27"></path>
                        <path d="M95.0869925,126 L89.8701504,126 C89.4005245,126 89.0214286,125.61452 89.0214286,125.136986 C89.0214286,124.659452 89.4005245,124.273973 89.8701504,124.273973 L95.0869925,124.273973 C95.5566184,124.273973 95.9357143,124.659452 95.9357143,125.136986 C95.9357143,125.608761 95.5566184,126 95.0869925,126 Z" id="Fill-28"></path>
                        <path d="M28.5654289,126 L9.4631425,126 C9.00925146,126 8.64285714,125.61452 8.64285714,125.136986 C8.64285714,124.659452 9.00925146,124.273973 9.4631425,124.273973 L28.5654289,124.273973 C29.01932,124.273973 29.3857143,124.659452 29.3857143,125.136986 C29.3857143,125.61452 29.01932,126 28.5654289,126 Z" id="Fill-29"></path>
                    </g>
                </g>
            </g>
        </g>
    </g>
</svg>